<svg width="1920" height="1080" viewBox="0 0 1920 1080" fill="none" xmlns="http://www.w3.org/2000/svg">
<rect width="1920" height="1080" fill="black"/>
<path d="M220.773 516.182V586H212.318V525.045H211.909L194.864 536.364V527.773L212.318 516.182H220.773ZM263.625 586.955C258.489 586.955 254.114 585.557 250.5 582.761C246.886 579.943 244.125 575.864 242.216 570.523C240.307 565.159 239.352 558.682 239.352 551.091C239.352 543.545 240.307 537.102 242.216 531.761C244.148 526.398 246.92 522.307 250.534 519.489C254.17 516.648 258.534 515.227 263.625 515.227C268.716 515.227 273.068 516.648 276.682 519.489C280.318 522.307 283.091 526.398 285 531.761C286.932 537.102 287.898 543.545 287.898 551.091C287.898 558.682 286.943 565.159 285.034 570.523C283.125 575.864 280.364 579.943 276.75 582.761C273.136 585.557 268.761 586.955 263.625 586.955ZM263.625 579.455C268.716 579.455 272.67 577 275.489 572.091C278.307 567.182 279.716 560.182 279.716 551.091C279.716 545.045 279.068 539.898 277.773 535.648C276.5 531.398 274.659 528.159 272.25 525.932C269.864 523.705 266.989 522.591 263.625 522.591C258.58 522.591 254.636 525.08 251.795 530.057C248.955 535.011 247.534 542.023 247.534 551.091C247.534 557.136 248.17 562.273 249.443 566.5C250.716 570.727 252.545 573.943 254.932 576.148C257.341 578.352 260.239 579.455 263.625 579.455ZM323.625 586.955C318.489 586.955 314.114 585.557 310.5 582.761C306.886 579.943 304.125 575.864 302.216 570.523C300.307 565.159 299.352 558.682 299.352 551.091C299.352 543.545 300.307 537.102 302.216 531.761C304.148 526.398 306.92 522.307 310.534 519.489C314.17 516.648 318.534 515.227 323.625 515.227C328.716 515.227 333.068 516.648 336.682 519.489C340.318 522.307 343.091 526.398 345 531.761C346.932 537.102 347.898 543.545 347.898 551.091C347.898 558.682 346.943 565.159 345.034 570.523C343.125 575.864 340.364 579.943 336.75 582.761C333.136 585.557 328.761 586.955 323.625 586.955ZM323.625 579.455C328.716 579.455 332.67 577 335.489 572.091C338.307 567.182 339.716 560.182 339.716 551.091C339.716 545.045 339.068 539.898 337.773 535.648C336.5 531.398 334.659 528.159 332.25 525.932C329.864 523.705 326.989 522.591 323.625 522.591C318.58 522.591 314.636 525.08 311.795 530.057C308.955 535.011 307.534 542.023 307.534 551.091C307.534 557.136 308.17 562.273 309.443 566.5C310.716 570.727 312.545 573.943 314.932 576.148C317.341 578.352 320.239 579.455 323.625 579.455Z" fill="#00FF1E"/>
<path d="M679.773 516.182V586H671.318V525.045H670.909L653.864 536.364V527.773L671.318 516.182H679.773ZM722.625 586.955C717.489 586.955 713.114 585.557 709.5 582.761C705.886 579.943 703.125 575.864 701.216 570.523C699.307 565.159 698.352 558.682 698.352 551.091C698.352 543.545 699.307 537.102 701.216 531.761C703.148 526.398 705.92 522.307 709.534 519.489C713.17 516.648 717.534 515.227 722.625 515.227C727.716 515.227 732.068 516.648 735.682 519.489C739.318 522.307 742.091 526.398 744 531.761C745.932 537.102 746.898 543.545 746.898 551.091C746.898 558.682 745.943 565.159 744.034 570.523C742.125 575.864 739.364 579.943 735.75 582.761C732.136 585.557 727.761 586.955 722.625 586.955ZM722.625 579.455C727.716 579.455 731.67 577 734.489 572.091C737.307 567.182 738.716 560.182 738.716 551.091C738.716 545.045 738.068 539.898 736.773 535.648C735.5 531.398 733.659 528.159 731.25 525.932C728.864 523.705 725.989 522.591 722.625 522.591C717.58 522.591 713.636 525.08 710.795 530.057C707.955 535.011 706.534 542.023 706.534 551.091C706.534 557.136 707.17 562.273 708.443 566.5C709.716 570.727 711.545 573.943 713.932 576.148C716.341 578.352 719.239 579.455 722.625 579.455ZM782.625 586.955C777.489 586.955 773.114 585.557 769.5 582.761C765.886 579.943 763.125 575.864 761.216 570.523C759.307 565.159 758.352 558.682 758.352 551.091C758.352 543.545 759.307 537.102 761.216 531.761C763.148 526.398 765.92 522.307 769.534 519.489C773.17 516.648 777.534 515.227 782.625 515.227C787.716 515.227 792.068 516.648 795.682 519.489C799.318 522.307 802.091 526.398 804 531.761C805.932 537.102 806.898 543.545 806.898 551.091C806.898 558.682 805.943 565.159 804.034 570.523C802.125 575.864 799.364 579.943 795.75 582.761C792.136 585.557 787.761 586.955 782.625 586.955ZM782.625 579.455C787.716 579.455 791.67 577 794.489 572.091C797.307 567.182 798.716 560.182 798.716 551.091C798.716 545.045 798.068 539.898 796.773 535.648C795.5 531.398 793.659 528.159 791.25 525.932C788.864 523.705 785.989 522.591 782.625 522.591C777.58 522.591 773.636 525.08 770.795 530.057C767.955 535.011 766.534 542.023 766.534 551.091C766.534 557.136 767.17 562.273 768.443 566.5C769.716 570.727 771.545 573.943 773.932 576.148C776.341 578.352 779.239 579.455 782.625 579.455Z" fill="#00FF1E"/>
<path d="M1138.77 516.182V586H1130.32V525.045H1129.91L1112.86 536.364V527.773L1130.32 516.182H1138.77ZM1181.62 586.955C1176.49 586.955 1172.11 585.557 1168.5 582.761C1164.89 579.943 1162.13 575.864 1160.22 570.523C1158.31 565.159 1157.35 558.682 1157.35 551.091C1157.35 543.545 1158.31 537.102 1160.22 531.761C1162.15 526.398 1164.92 522.307 1168.53 519.489C1172.17 516.648 1176.53 515.227 1181.62 515.227C1186.72 515.227 1191.07 516.648 1194.68 519.489C1198.32 522.307 1201.09 526.398 1203 531.761C1204.93 537.102 1205.9 543.545 1205.9 551.091C1205.9 558.682 1204.94 565.159 1203.03 570.523C1201.12 575.864 1198.36 579.943 1194.75 582.761C1191.14 585.557 1186.76 586.955 1181.62 586.955ZM1181.62 579.455C1186.72 579.455 1190.67 577 1193.49 572.091C1196.31 567.182 1197.72 560.182 1197.72 551.091C1197.72 545.045 1197.07 539.898 1195.77 535.648C1194.5 531.398 1192.66 528.159 1190.25 525.932C1187.86 523.705 1184.99 522.591 1181.62 522.591C1176.58 522.591 1172.64 525.08 1169.8 530.057C1166.95 535.011 1165.53 542.023 1165.53 551.091C1165.53 557.136 1166.17 562.273 1167.44 566.5C1168.72 570.727 1170.55 573.943 1172.93 576.148C1175.34 578.352 1178.24 579.455 1181.62 579.455ZM1241.62 586.955C1236.49 586.955 1232.11 585.557 1228.5 582.761C1224.89 579.943 1222.13 575.864 1220.22 570.523C1218.31 565.159 1217.35 558.682 1217.35 551.091C1217.35 543.545 1218.31 537.102 1220.22 531.761C1222.15 526.398 1224.92 522.307 1228.53 519.489C1232.17 516.648 1236.53 515.227 1241.62 515.227C1246.72 515.227 1251.07 516.648 1254.68 519.489C1258.32 522.307 1261.09 526.398 1263 531.761C1264.93 537.102 1265.9 543.545 1265.9 551.091C1265.9 558.682 1264.94 565.159 1263.03 570.523C1261.12 575.864 1258.36 579.943 1254.75 582.761C1251.14 585.557 1246.76 586.955 1241.62 586.955ZM1241.62 579.455C1246.72 579.455 1250.67 577 1253.49 572.091C1256.31 567.182 1257.72 560.182 1257.72 551.091C1257.72 545.045 1257.07 539.898 1255.77 535.648C1254.5 531.398 1252.66 528.159 1250.25 525.932C1247.86 523.705 1244.99 522.591 1241.62 522.591C1236.58 522.591 1232.64 525.08 1229.8 530.057C1226.95 535.011 1225.53 542.023 1225.53 551.091C1225.53 557.136 1226.17 562.273 1227.44 566.5C1228.72 570.727 1230.55 573.943 1232.93 576.148C1235.34 578.352 1238.24 579.455 1241.62 579.455Z" fill="#00FF1E"/>
<path d="M1597.77 516.182V586H1589.32V525.045H1588.91L1571.86 536.364V527.773L1589.32 516.182H1597.77ZM1640.62 586.955C1635.49 586.955 1631.11 585.557 1627.5 582.761C1623.89 579.943 1621.13 575.864 1619.22 570.523C1617.31 565.159 1616.35 558.682 1616.35 551.091C1616.35 543.545 1617.31 537.102 1619.22 531.761C1621.15 526.398 1623.92 522.307 1627.53 519.489C1631.17 516.648 1635.53 515.227 1640.62 515.227C1645.72 515.227 1650.07 516.648 1653.68 519.489C1657.32 522.307 1660.09 526.398 1662 531.761C1663.93 537.102 1664.9 543.545 1664.9 551.091C1664.9 558.682 1663.94 565.159 1662.03 570.523C1660.12 575.864 1657.36 579.943 1653.75 582.761C1650.14 585.557 1645.76 586.955 1640.62 586.955ZM1640.62 579.455C1645.72 579.455 1649.67 577 1652.49 572.091C1655.31 567.182 1656.72 560.182 1656.72 551.091C1656.72 545.045 1656.07 539.898 1654.77 535.648C1653.5 531.398 1651.66 528.159 1649.25 525.932C1646.86 523.705 1643.99 522.591 1640.62 522.591C1635.58 522.591 1631.64 525.08 1628.8 530.057C1625.95 535.011 1624.53 542.023 1624.53 551.091C1624.53 557.136 1625.17 562.273 1626.44 566.5C1627.72 570.727 1629.55 573.943 1631.93 576.148C1634.34 578.352 1637.24 579.455 1640.62 579.455ZM1700.62 586.955C1695.49 586.955 1691.11 585.557 1687.5 582.761C1683.89 579.943 1681.13 575.864 1679.22 570.523C1677.31 565.159 1676.35 558.682 1676.35 551.091C1676.35 543.545 1677.31 537.102 1679.22 531.761C1681.15 526.398 1683.92 522.307 1687.53 519.489C1691.17 516.648 1695.53 515.227 1700.62 515.227C1705.72 515.227 1710.07 516.648 1713.68 519.489C1717.32 522.307 1720.09 526.398 1722 531.761C1723.93 537.102 1724.9 543.545 1724.9 551.091C1724.9 558.682 1723.94 565.159 1722.03 570.523C1720.12 575.864 1717.36 579.943 1713.75 582.761C1710.14 585.557 1705.76 586.955 1700.62 586.955ZM1700.62 579.455C1705.72 579.455 1709.67 577 1712.49 572.091C1715.31 567.182 1716.72 560.182 1716.72 551.091C1716.72 545.045 1716.07 539.898 1714.77 535.648C1713.5 531.398 1711.66 528.159 1709.25 525.932C1706.86 523.705 1703.99 522.591 1700.62 522.591C1695.58 522.591 1691.64 525.08 1688.8 530.057C1685.95 535.011 1684.53 542.023 1684.53 551.091C1684.53 557.136 1685.17 562.273 1686.44 566.5C1687.72 570.727 1689.55 573.943 1691.93 576.148C1694.34 578.352 1697.24 579.455 1700.62 579.455Z" fill="#00FF1E"/>
<path d="M447 540C447 636.65 368.65 715 272 715C175.35 715 97 636.65 97 540C97 443.35 175.35 365 272 365C368.65 365 447 443.35 447 540ZM122.97 540C122.97 622.307 189.693 689.03 272 689.03C354.307 689.03 421.03 622.307 421.03 540C421.03 457.693 354.307 390.97 272 390.97C189.693 390.97 122.97 457.693 122.97 540Z" fill="#00FF1E"/>
<path d="M906 540C906 636.65 827.65 715 731 715C634.35 715 556 636.65 556 540C556 443.35 634.35 365 731 365C827.65 365 906 443.35 906 540ZM581.97 540C581.97 622.307 648.693 689.03 731 689.03C813.307 689.03 880.03 622.307 880.03 540C880.03 457.693 813.307 390.97 731 390.97C648.693 390.97 581.97 457.693 581.97 540Z" fill="#00FF1E"/>
<path d="M1365 540C1365 636.65 1286.65 715 1190 715C1093.35 715 1015 636.65 1015 540C1015 443.35 1093.35 365 1190 365C1286.65 365 1365 443.35 1365 540ZM1040.97 540C1040.97 622.307 1107.69 689.03 1190 689.03C1272.31 689.03 1339.03 622.307 1339.03 540C1339.03 457.693 1272.31 390.97 1190 390.97C1107.69 390.97 1040.97 457.693 1040.97 540Z" fill="#00FF1E"/>
<path d="M1824 540C1824 636.65 1745.65 715 1649 715C1552.35 715 1474 636.65 1474 540C1474 443.35 1552.35 365 1649 365C1745.65 365 1824 443.35 1824 540ZM1499.97 540C1499.97 622.307 1566.69 689.03 1649 689.03C1731.31 689.03 1798.03 622.307 1798.03 540C1798.03 457.693 1731.31 390.97 1649 390.97C1566.69 390.97 1499.97 457.693 1499.97 540Z" fill="#00FF1E"/>
<path d="M130.227 809V774.091H142.023C144.761 774.091 147 774.585 148.739 775.574C150.489 776.551 151.784 777.875 152.625 779.545C153.466 781.216 153.886 783.08 153.886 785.136C153.886 787.193 153.466 789.062 152.625 790.744C151.795 792.426 150.511 793.767 148.773 794.767C147.034 795.756 144.807 796.25 142.091 796.25H133.636V792.5H141.955C143.83 792.5 145.335 792.176 146.472 791.528C147.608 790.881 148.432 790.006 148.943 788.903C149.466 787.79 149.727 786.534 149.727 785.136C149.727 783.739 149.466 782.489 148.943 781.386C148.432 780.284 147.602 779.42 146.455 778.795C145.307 778.159 143.784 777.841 141.886 777.841H134.455V809H130.227ZM170.847 809.545C168.324 809.545 166.148 808.989 164.318 807.875C162.5 806.75 161.097 805.182 160.108 803.17C159.131 801.148 158.642 798.795 158.642 796.114C158.642 793.432 159.131 791.068 160.108 789.023C161.097 786.966 162.472 785.364 164.233 784.216C166.006 783.057 168.074 782.477 170.438 782.477C171.801 782.477 173.148 782.705 174.477 783.159C175.807 783.614 177.017 784.352 178.108 785.375C179.199 786.386 180.068 787.727 180.716 789.398C181.364 791.068 181.688 793.125 181.688 795.568V797.273H161.506V793.795H177.597C177.597 792.318 177.301 791 176.71 789.841C176.131 788.682 175.301 787.767 174.222 787.097C173.153 786.426 171.892 786.091 170.438 786.091C168.835 786.091 167.449 786.489 166.278 787.284C165.119 788.068 164.227 789.091 163.602 790.352C162.977 791.614 162.665 792.966 162.665 794.409V796.727C162.665 798.705 163.006 800.381 163.688 801.756C164.381 803.119 165.341 804.159 166.568 804.875C167.795 805.58 169.222 805.932 170.847 805.932C171.903 805.932 172.858 805.784 173.71 805.489C174.574 805.182 175.318 804.727 175.943 804.125C176.568 803.511 177.051 802.75 177.392 801.841L181.278 802.932C180.869 804.25 180.182 805.409 179.216 806.409C178.25 807.398 177.057 808.17 175.636 808.727C174.216 809.273 172.619 809.545 170.847 809.545ZM187.807 809V782.818H191.693V786.773H191.966C192.443 785.477 193.307 784.426 194.557 783.619C195.807 782.812 197.216 782.409 198.784 782.409C199.08 782.409 199.449 782.415 199.892 782.426C200.335 782.437 200.67 782.455 200.898 782.477V786.568C200.761 786.534 200.449 786.483 199.96 786.415C199.483 786.335 198.977 786.295 198.443 786.295C197.17 786.295 196.034 786.562 195.034 787.097C194.045 787.619 193.261 788.347 192.682 789.278C192.114 790.199 191.83 791.25 191.83 792.432V809H187.807ZM218.966 782.818V786.227H204.852V782.818H218.966ZM209.08 809V779.205C209.08 777.705 209.432 776.455 210.136 775.455C210.841 774.455 211.756 773.705 212.881 773.205C214.006 772.705 215.193 772.455 216.443 772.455C217.432 772.455 218.239 772.534 218.864 772.693C219.489 772.852 219.955 773 220.261 773.136L219.102 776.614C218.898 776.545 218.614 776.46 218.25 776.358C217.898 776.256 217.432 776.205 216.852 776.205C215.523 776.205 214.563 776.54 213.972 777.21C213.392 777.881 213.102 778.864 213.102 780.159V809H209.08ZM234.162 809.545C231.798 809.545 229.724 808.983 227.94 807.858C226.168 806.733 224.781 805.159 223.781 803.136C222.793 801.114 222.298 798.75 222.298 796.045C222.298 793.318 222.793 790.937 223.781 788.903C224.781 786.869 226.168 785.29 227.94 784.165C229.724 783.04 231.798 782.477 234.162 782.477C236.526 782.477 238.594 783.04 240.366 784.165C242.151 785.29 243.537 786.869 244.526 788.903C245.526 790.937 246.026 793.318 246.026 796.045C246.026 798.75 245.526 801.114 244.526 803.136C243.537 805.159 242.151 806.733 240.366 807.858C238.594 808.983 236.526 809.545 234.162 809.545ZM234.162 805.932C235.957 805.932 237.435 805.472 238.594 804.551C239.753 803.631 240.611 802.42 241.168 800.92C241.724 799.42 242.003 797.795 242.003 796.045C242.003 794.295 241.724 792.665 241.168 791.153C240.611 789.642 239.753 788.42 238.594 787.489C237.435 786.557 235.957 786.091 234.162 786.091C232.366 786.091 230.889 786.557 229.73 787.489C228.571 788.42 227.713 789.642 227.156 791.153C226.599 792.665 226.321 794.295 226.321 796.045C226.321 797.795 226.599 799.42 227.156 800.92C227.713 802.42 228.571 803.631 229.73 804.551C230.889 805.472 232.366 805.932 234.162 805.932ZM252.166 809V782.818H256.053V786.773H256.325C256.803 785.477 257.666 784.426 258.916 783.619C260.166 782.812 261.575 782.409 263.143 782.409C263.439 782.409 263.808 782.415 264.251 782.426C264.695 782.437 265.03 782.455 265.257 782.477V786.568C265.121 786.534 264.808 786.483 264.32 786.415C263.842 786.335 263.337 786.295 262.803 786.295C261.53 786.295 260.393 786.562 259.393 787.097C258.405 787.619 257.621 788.347 257.041 789.278C256.473 790.199 256.189 791.25 256.189 792.432V809H252.166ZM270.026 809V782.818H273.912V786.909H274.253C274.798 785.511 275.679 784.426 276.895 783.653C278.111 782.869 279.571 782.477 281.276 782.477C283.003 782.477 284.44 782.869 285.588 783.653C286.747 784.426 287.651 785.511 288.298 786.909H288.571C289.241 785.557 290.247 784.483 291.588 783.688C292.929 782.881 294.537 782.477 296.412 782.477C298.753 782.477 300.668 783.21 302.156 784.676C303.645 786.131 304.389 788.398 304.389 791.477V809H300.366V791.477C300.366 789.545 299.838 788.165 298.781 787.335C297.724 786.506 296.48 786.091 295.048 786.091C293.207 786.091 291.781 786.648 290.77 787.761C289.759 788.864 289.253 790.261 289.253 791.955V809H285.162V791.068C285.162 789.58 284.679 788.381 283.713 787.472C282.747 786.551 281.503 786.091 279.98 786.091C278.935 786.091 277.957 786.369 277.048 786.926C276.151 787.483 275.423 788.256 274.866 789.244C274.321 790.222 274.048 791.352 274.048 792.636V809H270.026ZM319.449 809.614C317.79 809.614 316.284 809.301 314.932 808.676C313.58 808.04 312.506 807.125 311.71 805.932C310.915 804.727 310.517 803.273 310.517 801.568C310.517 800.068 310.813 798.852 311.403 797.92C311.994 796.977 312.784 796.239 313.773 795.705C314.761 795.17 315.852 794.773 317.045 794.511C318.25 794.239 319.46 794.023 320.676 793.864C322.267 793.659 323.557 793.506 324.545 793.403C325.545 793.29 326.273 793.102 326.727 792.841C327.193 792.58 327.426 792.125 327.426 791.477V791.341C327.426 789.659 326.966 788.352 326.045 787.42C325.136 786.489 323.756 786.023 321.903 786.023C319.983 786.023 318.477 786.443 317.386 787.284C316.295 788.125 315.528 789.023 315.085 789.977L311.267 788.614C311.949 787.023 312.858 785.784 313.994 784.898C315.142 784 316.392 783.375 317.744 783.023C319.108 782.659 320.449 782.477 321.767 782.477C322.608 782.477 323.574 782.58 324.665 782.784C325.767 782.977 326.83 783.381 327.852 783.994C328.886 784.608 329.744 785.534 330.426 786.773C331.108 788.011 331.449 789.67 331.449 791.75V809H327.426V805.455H327.222C326.949 806.023 326.494 806.631 325.858 807.278C325.222 807.926 324.375 808.477 323.318 808.932C322.261 809.386 320.972 809.614 319.449 809.614ZM320.062 806C321.653 806 322.994 805.688 324.085 805.062C325.188 804.438 326.017 803.631 326.574 802.642C327.142 801.653 327.426 800.614 327.426 799.523V795.841C327.256 796.045 326.881 796.233 326.301 796.403C325.733 796.562 325.074 796.705 324.324 796.83C323.585 796.943 322.864 797.045 322.159 797.136C321.466 797.216 320.903 797.284 320.472 797.341C319.426 797.477 318.449 797.699 317.54 798.006C316.642 798.301 315.915 798.75 315.358 799.352C314.813 799.943 314.54 800.75 314.54 801.773C314.54 803.17 315.057 804.227 316.091 804.943C317.136 805.648 318.46 806 320.062 806ZM342.814 793.25V809H338.791V782.818H342.678V786.909H343.018C343.632 785.58 344.564 784.511 345.814 783.705C347.064 782.886 348.678 782.477 350.655 782.477C352.428 782.477 353.979 782.841 355.308 783.568C356.638 784.284 357.672 785.375 358.411 786.841C359.149 788.295 359.518 790.136 359.518 792.364V809H355.496V792.636C355.496 790.58 354.962 788.977 353.893 787.83C352.825 786.67 351.359 786.091 349.496 786.091C348.212 786.091 347.064 786.369 346.053 786.926C345.053 787.483 344.263 788.295 343.683 789.364C343.104 790.432 342.814 791.727 342.814 793.25ZM377.506 809.545C375.051 809.545 372.938 808.966 371.165 807.807C369.392 806.648 368.028 805.051 367.074 803.017C366.119 800.983 365.642 798.659 365.642 796.045C365.642 793.386 366.131 791.04 367.108 789.006C368.097 786.96 369.472 785.364 371.233 784.216C373.006 783.057 375.074 782.477 377.438 782.477C379.278 782.477 380.938 782.818 382.415 783.5C383.892 784.182 385.102 785.136 386.045 786.364C386.989 787.591 387.574 789.023 387.801 790.659H383.778C383.472 789.466 382.79 788.409 381.733 787.489C380.688 786.557 379.278 786.091 377.506 786.091C375.938 786.091 374.563 786.5 373.381 787.318C372.21 788.125 371.295 789.267 370.636 790.744C369.989 792.21 369.665 793.932 369.665 795.909C369.665 797.932 369.983 799.693 370.619 801.193C371.267 802.693 372.176 803.858 373.347 804.688C374.528 805.517 375.915 805.932 377.506 805.932C378.551 805.932 379.5 805.75 380.352 805.386C381.205 805.023 381.926 804.5 382.517 803.818C383.108 803.136 383.528 802.318 383.778 801.364H387.801C387.574 802.909 387.011 804.301 386.114 805.54C385.227 806.767 384.051 807.744 382.585 808.472C381.131 809.188 379.438 809.545 377.506 809.545ZM404.659 809.545C402.136 809.545 399.96 808.989 398.131 807.875C396.312 806.75 394.909 805.182 393.92 803.17C392.943 801.148 392.455 798.795 392.455 796.114C392.455 793.432 392.943 791.068 393.92 789.023C394.909 786.966 396.284 785.364 398.045 784.216C399.818 783.057 401.886 782.477 404.25 782.477C405.614 782.477 406.96 782.705 408.29 783.159C409.619 783.614 410.83 784.352 411.92 785.375C413.011 786.386 413.881 787.727 414.528 789.398C415.176 791.068 415.5 793.125 415.5 795.568V797.273H395.318V793.795H411.409C411.409 792.318 411.114 791 410.523 789.841C409.943 788.682 409.114 787.767 408.034 787.097C406.966 786.426 405.705 786.091 404.25 786.091C402.648 786.091 401.261 786.489 400.091 787.284C398.932 788.068 398.04 789.091 397.415 790.352C396.79 791.614 396.477 792.966 396.477 794.409V796.727C396.477 798.705 396.818 800.381 397.5 801.756C398.193 803.119 399.153 804.159 400.381 804.875C401.608 805.58 403.034 805.932 404.659 805.932C405.716 805.932 406.67 805.784 407.523 805.489C408.386 805.182 409.131 804.727 409.756 804.125C410.381 803.511 410.864 802.75 411.205 801.841L415.091 802.932C414.682 804.25 413.994 805.409 413.028 806.409C412.063 807.398 410.869 808.17 409.449 808.727C408.028 809.273 406.432 809.545 404.659 809.545Z" fill="white"/>
<path d="M594.659 809H590.227L603.045 774.091H607.409L620.227 809H615.795L605.364 779.614H605.091L594.659 809ZM596.295 795.364H614.159V799.114H596.295V795.364ZM635.756 809.545C633.301 809.545 631.188 808.966 629.415 807.807C627.642 806.648 626.278 805.051 625.324 803.017C624.369 800.983 623.892 798.659 623.892 796.045C623.892 793.386 624.381 791.04 625.358 789.006C626.347 786.96 627.722 785.364 629.483 784.216C631.256 783.057 633.324 782.477 635.688 782.477C637.528 782.477 639.188 782.818 640.665 783.5C642.142 784.182 643.352 785.136 644.295 786.364C645.239 787.591 645.824 789.023 646.051 790.659H642.028C641.722 789.466 641.04 788.409 639.983 787.489C638.938 786.557 637.528 786.091 635.756 786.091C634.188 786.091 632.813 786.5 631.631 787.318C630.46 788.125 629.545 789.267 628.886 790.744C628.239 792.21 627.915 793.932 627.915 795.909C627.915 797.932 628.233 799.693 628.869 801.193C629.517 802.693 630.426 803.858 631.597 804.688C632.778 805.517 634.165 805.932 635.756 805.932C636.801 805.932 637.75 805.75 638.602 805.386C639.455 805.023 640.176 804.5 640.767 803.818C641.358 803.136 641.778 802.318 642.028 801.364H646.051C645.824 802.909 645.261 804.301 644.364 805.54C643.477 806.767 642.301 807.744 640.835 808.472C639.381 809.188 637.688 809.545 635.756 809.545ZM662.568 809.545C660.114 809.545 658 808.966 656.227 807.807C654.455 806.648 653.091 805.051 652.136 803.017C651.182 800.983 650.705 798.659 650.705 796.045C650.705 793.386 651.193 791.04 652.17 789.006C653.159 786.96 654.534 785.364 656.295 784.216C658.068 783.057 660.136 782.477 662.5 782.477C664.341 782.477 666 782.818 667.477 783.5C668.955 784.182 670.165 785.136 671.108 786.364C672.051 787.591 672.636 789.023 672.864 790.659H668.841C668.534 789.466 667.852 788.409 666.795 787.489C665.75 786.557 664.341 786.091 662.568 786.091C661 786.091 659.625 786.5 658.443 787.318C657.273 788.125 656.358 789.267 655.699 790.744C655.051 792.21 654.727 793.932 654.727 795.909C654.727 797.932 655.045 799.693 655.682 801.193C656.33 802.693 657.239 803.858 658.409 804.688C659.591 805.517 660.977 805.932 662.568 805.932C663.614 805.932 664.562 805.75 665.415 805.386C666.267 805.023 666.989 804.5 667.58 803.818C668.17 803.136 668.591 802.318 668.841 801.364H672.864C672.636 802.909 672.074 804.301 671.176 805.54C670.29 806.767 669.114 807.744 667.648 808.472C666.193 809.188 664.5 809.545 662.568 809.545ZM689.722 809.545C687.199 809.545 685.023 808.989 683.193 807.875C681.375 806.75 679.972 805.182 678.983 803.17C678.006 801.148 677.517 798.795 677.517 796.114C677.517 793.432 678.006 791.068 678.983 789.023C679.972 786.966 681.347 785.364 683.108 784.216C684.881 783.057 686.949 782.477 689.312 782.477C690.676 782.477 692.023 782.705 693.352 783.159C694.682 783.614 695.892 784.352 696.983 785.375C698.074 786.386 698.943 787.727 699.591 789.398C700.239 791.068 700.562 793.125 700.562 795.568V797.273H680.381V793.795H696.472C696.472 792.318 696.176 791 695.585 789.841C695.006 788.682 694.176 787.767 693.097 787.097C692.028 786.426 690.767 786.091 689.312 786.091C687.71 786.091 686.324 786.489 685.153 787.284C683.994 788.068 683.102 789.091 682.477 790.352C681.852 791.614 681.54 792.966 681.54 794.409V796.727C681.54 798.705 681.881 800.381 682.562 801.756C683.256 803.119 684.216 804.159 685.443 804.875C686.67 805.58 688.097 805.932 689.722 805.932C690.778 805.932 691.733 805.784 692.585 805.489C693.449 805.182 694.193 804.727 694.818 804.125C695.443 803.511 695.926 802.75 696.267 801.841L700.153 802.932C699.744 804.25 699.057 805.409 698.091 806.409C697.125 807.398 695.932 808.17 694.511 808.727C693.091 809.273 691.494 809.545 689.722 809.545ZM725.227 788.682L721.614 789.705C721.386 789.102 721.051 788.517 720.608 787.949C720.176 787.369 719.585 786.892 718.835 786.517C718.085 786.142 717.125 785.955 715.955 785.955C714.352 785.955 713.017 786.324 711.949 787.062C710.892 787.79 710.364 788.716 710.364 789.841C710.364 790.841 710.727 791.631 711.455 792.21C712.182 792.79 713.318 793.273 714.864 793.659L718.75 794.614C721.091 795.182 722.835 796.051 723.983 797.222C725.131 798.381 725.705 799.875 725.705 801.705C725.705 803.205 725.273 804.545 724.409 805.727C723.557 806.909 722.364 807.841 720.83 808.523C719.295 809.205 717.511 809.545 715.477 809.545C712.807 809.545 710.597 808.966 708.847 807.807C707.097 806.648 705.989 804.955 705.523 802.727L709.341 801.773C709.705 803.182 710.392 804.239 711.403 804.943C712.426 805.648 713.761 806 715.409 806C717.284 806 718.773 805.602 719.875 804.807C720.989 804 721.545 803.034 721.545 801.909C721.545 801 721.227 800.239 720.591 799.625C719.955 799 718.977 798.534 717.659 798.227L713.295 797.205C710.898 796.636 709.136 795.756 708.011 794.562C706.898 793.358 706.341 791.852 706.341 790.045C706.341 788.568 706.756 787.261 707.585 786.125C708.426 784.989 709.568 784.097 711.011 783.449C712.466 782.801 714.114 782.477 715.955 782.477C718.545 782.477 720.58 783.045 722.057 784.182C723.545 785.318 724.602 786.818 725.227 788.682ZM750.305 788.682L746.692 789.705C746.464 789.102 746.129 788.517 745.686 787.949C745.254 787.369 744.663 786.892 743.913 786.517C743.163 786.142 742.203 785.955 741.033 785.955C739.43 785.955 738.095 786.324 737.027 787.062C735.97 787.79 735.442 788.716 735.442 789.841C735.442 790.841 735.805 791.631 736.533 792.21C737.26 792.79 738.396 793.273 739.942 793.659L743.828 794.614C746.169 795.182 747.913 796.051 749.061 797.222C750.209 798.381 750.783 799.875 750.783 801.705C750.783 803.205 750.351 804.545 749.487 805.727C748.635 806.909 747.442 807.841 745.908 808.523C744.374 809.205 742.589 809.545 740.555 809.545C737.885 809.545 735.675 808.966 733.925 807.807C732.175 806.648 731.067 804.955 730.601 802.727L734.419 801.773C734.783 803.182 735.47 804.239 736.482 804.943C737.504 805.648 738.839 806 740.487 806C742.362 806 743.851 805.602 744.953 804.807C746.067 804 746.624 803.034 746.624 801.909C746.624 801 746.305 800.239 745.669 799.625C745.033 799 744.055 798.534 742.737 798.227L738.374 797.205C735.976 796.636 734.214 795.756 733.089 794.562C731.976 793.358 731.419 791.852 731.419 790.045C731.419 788.568 731.834 787.261 732.663 786.125C733.504 784.989 734.646 784.097 736.089 783.449C737.544 782.801 739.192 782.477 741.033 782.477C743.624 782.477 745.658 783.045 747.135 784.182C748.624 785.318 749.68 786.818 750.305 788.682ZM756.838 809V782.818H760.861V809H756.838ZM758.884 778.455C758.099 778.455 757.423 778.188 756.855 777.653C756.298 777.119 756.02 776.477 756.02 775.727C756.02 774.977 756.298 774.335 756.855 773.801C757.423 773.267 758.099 773 758.884 773C759.668 773 760.338 773.267 760.895 773.801C761.463 774.335 761.747 774.977 761.747 775.727C761.747 776.477 761.463 777.119 760.895 777.653C760.338 778.188 759.668 778.455 758.884 778.455ZM768.774 809V774.091H772.797V786.977H773.138C773.433 786.523 773.842 785.943 774.365 785.239C774.899 784.523 775.661 783.886 776.649 783.33C777.649 782.761 779.001 782.477 780.706 782.477C782.911 782.477 784.854 783.028 786.536 784.131C788.217 785.233 789.53 786.795 790.473 788.818C791.416 790.841 791.888 793.227 791.888 795.977C791.888 798.75 791.416 801.153 790.473 803.188C789.53 805.21 788.223 806.778 786.553 807.892C784.882 808.994 782.956 809.545 780.774 809.545C779.092 809.545 777.746 809.267 776.734 808.71C775.723 808.142 774.945 807.5 774.399 806.784C773.854 806.057 773.433 805.455 773.138 804.977H772.661V809H768.774ZM772.729 795.909C772.729 797.886 773.018 799.631 773.598 801.142C774.178 802.642 775.024 803.818 776.138 804.67C777.251 805.511 778.615 805.932 780.229 805.932C781.911 805.932 783.314 805.489 784.439 804.602C785.575 803.705 786.428 802.5 786.996 800.989C787.575 799.466 787.865 797.773 787.865 795.909C787.865 794.068 787.581 792.409 787.013 790.932C786.456 789.443 785.609 788.267 784.473 787.403C783.348 786.528 781.933 786.091 780.229 786.091C778.592 786.091 777.217 786.506 776.104 787.335C774.99 788.153 774.149 789.301 773.581 790.778C773.013 792.244 772.729 793.955 772.729 795.909ZM798.041 809V782.818H802.064V809H798.041ZM800.087 778.455C799.303 778.455 798.626 778.188 798.058 777.653C797.501 777.119 797.223 776.477 797.223 775.727C797.223 774.977 797.501 774.335 798.058 773.801C798.626 773.267 799.303 773 800.087 773C800.871 773 801.541 773.267 802.098 773.801C802.666 774.335 802.95 774.977 802.95 775.727C802.95 776.477 802.666 777.119 802.098 777.653C801.541 778.188 800.871 778.455 800.087 778.455ZM813.455 774.091V809H809.432V774.091H813.455ZM820.822 809V782.818H824.845V809H820.822ZM822.868 778.455C822.084 778.455 821.408 778.188 820.839 777.653C820.283 777.119 820.004 776.477 820.004 775.727C820.004 774.977 820.283 774.335 820.839 773.801C821.408 773.267 822.084 773 822.868 773C823.652 773 824.322 773.267 824.879 773.801C825.447 774.335 825.732 774.977 825.732 775.727C825.732 776.477 825.447 777.119 824.879 777.653C824.322 778.188 823.652 778.455 822.868 778.455ZM843.599 782.818V786.227H830.031V782.818H843.599ZM833.986 776.545H838.009V801.5C838.009 802.636 838.173 803.489 838.503 804.057C838.844 804.614 839.276 804.989 839.798 805.182C840.332 805.364 840.895 805.455 841.486 805.455C841.929 805.455 842.293 805.432 842.577 805.386C842.861 805.33 843.088 805.284 843.259 805.25L844.077 808.864C843.804 808.966 843.423 809.068 842.935 809.17C842.446 809.284 841.827 809.341 841.077 809.341C839.94 809.341 838.827 809.097 837.736 808.608C836.656 808.119 835.759 807.375 835.043 806.375C834.338 805.375 833.986 804.114 833.986 802.591V776.545ZM852.241 818.818C851.56 818.818 850.952 818.761 850.418 818.648C849.884 818.545 849.514 818.443 849.31 818.341L850.332 814.795C851.31 815.045 852.173 815.136 852.923 815.068C853.673 815 854.338 814.665 854.918 814.062C855.509 813.472 856.048 812.511 856.537 811.182L857.287 809.136L847.605 782.818H851.969L859.196 803.682H859.469L866.696 782.818H871.06L859.946 812.818C859.446 814.17 858.827 815.29 858.088 816.176C857.349 817.074 856.491 817.739 855.514 818.17C854.548 818.602 853.457 818.818 852.241 818.818Z" fill="white"/>
<path d="M1030.23 809V774.091H1042.43C1044.86 774.091 1046.87 774.511 1048.45 775.352C1050.03 776.182 1051.2 777.301 1051.98 778.71C1052.75 780.108 1053.14 781.659 1053.14 783.364C1053.14 784.864 1052.87 786.102 1052.34 787.08C1051.81 788.057 1051.12 788.83 1050.26 789.398C1049.4 789.966 1048.48 790.386 1047.48 790.659V791C1048.55 791.068 1049.62 791.443 1050.7 792.125C1051.78 792.807 1052.68 793.784 1053.41 795.057C1054.14 796.33 1054.5 797.886 1054.5 799.727C1054.5 801.477 1054.1 803.051 1053.31 804.449C1052.51 805.847 1051.26 806.955 1049.54 807.773C1047.82 808.591 1045.59 809 1042.84 809H1030.23ZM1034.45 805.25H1042.84C1045.6 805.25 1047.56 804.716 1048.72 803.648C1049.89 802.568 1050.48 801.261 1050.48 799.727C1050.48 798.545 1050.18 797.455 1049.57 796.455C1048.97 795.443 1048.11 794.636 1047 794.034C1045.89 793.42 1044.57 793.114 1043.05 793.114H1034.45V805.25ZM1034.45 789.432H1042.3C1043.57 789.432 1044.72 789.182 1045.74 788.682C1046.77 788.182 1047.59 787.477 1048.19 786.568C1048.81 785.659 1049.11 784.591 1049.11 783.364C1049.11 781.83 1048.58 780.528 1047.51 779.46C1046.44 778.381 1044.75 777.841 1042.43 777.841H1034.45V789.432ZM1071.88 809.545C1069.36 809.545 1067.18 808.989 1065.35 807.875C1063.53 806.75 1062.13 805.182 1061.14 803.17C1060.16 801.148 1059.67 798.795 1059.67 796.114C1059.67 793.432 1060.16 791.068 1061.14 789.023C1062.13 786.966 1063.5 785.364 1065.26 784.216C1067.04 783.057 1069.11 782.477 1071.47 782.477C1072.83 782.477 1074.18 782.705 1075.51 783.159C1076.84 783.614 1078.05 784.352 1079.14 785.375C1080.23 786.386 1081.1 787.727 1081.75 789.398C1082.39 791.068 1082.72 793.125 1082.72 795.568V797.273H1062.54V793.795H1078.63C1078.63 792.318 1078.33 791 1077.74 789.841C1077.16 788.682 1076.33 787.767 1075.25 787.097C1074.18 786.426 1072.92 786.091 1071.47 786.091C1069.87 786.091 1068.48 786.489 1067.31 787.284C1066.15 788.068 1065.26 789.091 1064.63 790.352C1064.01 791.614 1063.7 792.966 1063.7 794.409V796.727C1063.7 798.705 1064.04 800.381 1064.72 801.756C1065.41 803.119 1066.37 804.159 1067.6 804.875C1068.83 805.58 1070.25 805.932 1071.88 805.932C1072.93 805.932 1073.89 805.784 1074.74 805.489C1075.61 805.182 1076.35 804.727 1076.97 804.125C1077.6 803.511 1078.08 802.75 1078.42 801.841L1082.31 802.932C1081.9 804.25 1081.21 805.409 1080.25 806.409C1079.28 807.398 1078.09 808.17 1076.67 808.727C1075.25 809.273 1073.65 809.545 1071.88 809.545ZM1107.38 788.682L1103.77 789.705C1103.54 789.102 1103.21 788.517 1102.76 787.949C1102.33 787.369 1101.74 786.892 1100.99 786.517C1100.24 786.142 1099.28 785.955 1098.11 785.955C1096.51 785.955 1095.17 786.324 1094.11 787.062C1093.05 787.79 1092.52 788.716 1092.52 789.841C1092.52 790.841 1092.88 791.631 1093.61 792.21C1094.34 792.79 1095.47 793.273 1097.02 793.659L1100.91 794.614C1103.25 795.182 1104.99 796.051 1106.14 797.222C1107.29 798.381 1107.86 799.875 1107.86 801.705C1107.86 803.205 1107.43 804.545 1106.57 805.727C1105.71 806.909 1104.52 807.841 1102.99 808.523C1101.45 809.205 1099.67 809.545 1097.63 809.545C1094.96 809.545 1092.75 808.966 1091 807.807C1089.25 806.648 1088.14 804.955 1087.68 802.727L1091.5 801.773C1091.86 803.182 1092.55 804.239 1093.56 804.943C1094.58 805.648 1095.92 806 1097.57 806C1099.44 806 1100.93 805.602 1102.03 804.807C1103.14 804 1103.7 803.034 1103.7 801.909C1103.7 801 1103.38 800.239 1102.75 799.625C1102.11 799 1101.13 798.534 1099.82 798.227L1095.45 797.205C1093.05 796.636 1091.29 795.756 1090.17 794.562C1089.05 793.358 1088.5 791.852 1088.5 790.045C1088.5 788.568 1088.91 787.261 1089.74 786.125C1090.58 784.989 1091.72 784.097 1093.17 783.449C1094.62 782.801 1096.27 782.477 1098.11 782.477C1100.7 782.477 1102.74 783.045 1104.21 784.182C1105.7 785.318 1106.76 786.818 1107.38 788.682ZM1125.3 782.818V786.227H1111.73V782.818H1125.3ZM1115.69 776.545H1119.71V801.5C1119.71 802.636 1119.88 803.489 1120.21 804.057C1120.55 804.614 1120.98 804.989 1121.5 805.182C1122.04 805.364 1122.6 805.455 1123.19 805.455C1123.63 805.455 1124 805.432 1124.28 805.386C1124.56 805.33 1124.79 805.284 1124.96 805.25L1125.78 808.864C1125.51 808.966 1125.13 809.068 1124.64 809.17C1124.15 809.284 1123.53 809.341 1122.78 809.341C1121.64 809.341 1120.53 809.097 1119.44 808.608C1118.36 808.119 1117.46 807.375 1116.75 806.375C1116.04 805.375 1115.69 804.114 1115.69 802.591V776.545ZM1145.4 809V774.091H1157.19C1159.93 774.091 1162.17 774.585 1163.91 775.574C1165.66 776.551 1166.96 777.875 1167.8 779.545C1168.64 781.216 1169.06 783.08 1169.06 785.136C1169.06 787.193 1168.64 789.062 1167.8 790.744C1166.97 792.426 1165.68 793.767 1163.94 794.767C1162.21 795.756 1159.98 796.25 1157.26 796.25H1148.81V792.5H1157.13C1159 792.5 1160.51 792.176 1161.64 791.528C1162.78 790.881 1163.6 790.006 1164.12 788.903C1164.64 787.79 1164.9 786.534 1164.9 785.136C1164.9 783.739 1164.64 782.489 1164.12 781.386C1163.6 780.284 1162.77 779.42 1161.63 778.795C1160.48 778.159 1158.96 777.841 1157.06 777.841H1149.63V809H1145.4ZM1175.32 809V782.818H1179.21V786.773H1179.48C1179.96 785.477 1180.82 784.426 1182.07 783.619C1183.32 782.812 1184.73 782.409 1186.3 782.409C1186.6 782.409 1186.96 782.415 1187.41 782.426C1187.85 782.437 1188.19 782.455 1188.41 782.477V786.568C1188.28 786.534 1187.96 786.483 1187.48 786.415C1187 786.335 1186.49 786.295 1185.96 786.295C1184.69 786.295 1183.55 786.562 1182.55 787.097C1181.56 787.619 1180.78 788.347 1180.2 789.278C1179.63 790.199 1179.35 791.25 1179.35 792.432V809H1175.32ZM1200.89 809.614C1199.23 809.614 1197.72 809.301 1196.37 808.676C1195.02 808.04 1193.94 807.125 1193.15 805.932C1192.35 804.727 1191.95 803.273 1191.95 801.568C1191.95 800.068 1192.25 798.852 1192.84 797.92C1193.43 796.977 1194.22 796.239 1195.21 795.705C1196.2 795.17 1197.29 794.773 1198.48 794.511C1199.69 794.239 1200.9 794.023 1202.11 793.864C1203.7 793.659 1204.99 793.506 1205.98 793.403C1206.98 793.29 1207.71 793.102 1208.16 792.841C1208.63 792.58 1208.86 792.125 1208.86 791.477V791.341C1208.86 789.659 1208.4 788.352 1207.48 787.42C1206.57 786.489 1205.19 786.023 1203.34 786.023C1201.42 786.023 1199.91 786.443 1198.82 787.284C1197.73 788.125 1196.97 789.023 1196.52 789.977L1192.7 788.614C1193.39 787.023 1194.3 785.784 1195.43 784.898C1196.58 784 1197.83 783.375 1199.18 783.023C1200.55 782.659 1201.89 782.477 1203.2 782.477C1204.05 782.477 1205.01 782.58 1206.1 782.784C1207.2 782.977 1208.27 783.381 1209.29 783.994C1210.32 784.608 1211.18 785.534 1211.86 786.773C1212.55 788.011 1212.89 789.67 1212.89 791.75V809H1208.86V805.455H1208.66C1208.39 806.023 1207.93 806.631 1207.3 807.278C1206.66 807.926 1205.81 808.477 1204.76 808.932C1203.7 809.386 1202.41 809.614 1200.89 809.614ZM1201.5 806C1203.09 806 1204.43 805.688 1205.52 805.062C1206.63 804.438 1207.45 803.631 1208.01 802.642C1208.58 801.653 1208.86 800.614 1208.86 799.523V795.841C1208.69 796.045 1208.32 796.233 1207.74 796.403C1207.17 796.562 1206.51 796.705 1205.76 796.83C1205.02 796.943 1204.3 797.045 1203.6 797.136C1202.9 797.216 1202.34 797.284 1201.91 797.341C1200.86 797.477 1199.89 797.699 1198.98 798.006C1198.08 798.301 1197.35 798.75 1196.8 799.352C1196.25 799.943 1195.98 800.75 1195.98 801.773C1195.98 803.17 1196.49 804.227 1197.53 804.943C1198.57 805.648 1199.9 806 1201.5 806ZM1230.87 809.545C1228.41 809.545 1226.3 808.966 1224.52 807.807C1222.75 806.648 1221.39 805.051 1220.43 803.017C1219.48 800.983 1219 798.659 1219 796.045C1219 793.386 1219.49 791.04 1220.47 789.006C1221.46 786.96 1222.83 785.364 1224.59 784.216C1226.37 783.057 1228.43 782.477 1230.8 782.477C1232.64 782.477 1234.3 782.818 1235.77 783.5C1237.25 784.182 1238.46 785.136 1239.4 786.364C1240.35 787.591 1240.93 789.023 1241.16 790.659H1237.14C1236.83 789.466 1236.15 788.409 1235.09 787.489C1234.05 786.557 1232.64 786.091 1230.87 786.091C1229.3 786.091 1227.92 786.5 1226.74 787.318C1225.57 788.125 1224.65 789.267 1224 790.744C1223.35 792.21 1223.02 793.932 1223.02 795.909C1223.02 797.932 1223.34 799.693 1223.98 801.193C1224.63 802.693 1225.54 803.858 1226.71 804.688C1227.89 805.517 1229.27 805.932 1230.87 805.932C1231.91 805.932 1232.86 805.75 1233.71 805.386C1234.56 805.023 1235.29 804.5 1235.88 803.818C1236.47 803.136 1236.89 802.318 1237.14 801.364H1241.16C1240.93 802.909 1240.37 804.301 1239.47 805.54C1238.59 806.767 1237.41 807.744 1235.94 808.472C1234.49 809.188 1232.8 809.545 1230.87 809.545ZM1258.43 782.818V786.227H1244.86V782.818H1258.43ZM1248.81 776.545H1252.84V801.5C1252.84 802.636 1253 803.489 1253.33 804.057C1253.67 804.614 1254.1 804.989 1254.63 805.182C1255.16 805.364 1255.72 805.455 1256.31 805.455C1256.76 805.455 1257.12 805.432 1257.4 805.386C1257.69 805.33 1257.92 805.284 1258.09 805.25L1258.9 808.864C1258.63 808.966 1258.25 809.068 1257.76 809.17C1257.27 809.284 1256.65 809.341 1255.9 809.341C1254.77 809.341 1253.65 809.097 1252.56 808.608C1251.48 808.119 1250.59 807.375 1249.87 806.375C1249.17 805.375 1248.81 804.114 1248.81 802.591V776.545ZM1264.48 809V782.818H1268.5V809H1264.48ZM1266.52 778.455C1265.74 778.455 1265.06 778.188 1264.5 777.653C1263.94 777.119 1263.66 776.477 1263.66 775.727C1263.66 774.977 1263.94 774.335 1264.5 773.801C1265.06 773.267 1265.74 773 1266.52 773C1267.31 773 1267.98 773.267 1268.54 773.801C1269.1 774.335 1269.39 774.977 1269.39 775.727C1269.39 776.477 1269.1 777.119 1268.54 777.653C1267.98 778.188 1267.31 778.455 1266.52 778.455ZM1286.51 809.545C1284.05 809.545 1281.94 808.966 1280.16 807.807C1278.39 806.648 1277.03 805.051 1276.07 803.017C1275.12 800.983 1274.64 798.659 1274.64 796.045C1274.64 793.386 1275.13 791.04 1276.11 789.006C1277.1 786.96 1278.47 785.364 1280.23 784.216C1282.01 783.057 1284.07 782.477 1286.44 782.477C1288.28 782.477 1289.94 782.818 1291.41 783.5C1292.89 784.182 1294.1 785.136 1295.05 786.364C1295.99 787.591 1296.57 789.023 1296.8 790.659H1292.78C1292.47 789.466 1291.79 788.409 1290.73 787.489C1289.69 786.557 1288.28 786.091 1286.51 786.091C1284.94 786.091 1283.56 786.5 1282.38 787.318C1281.21 788.125 1280.3 789.267 1279.64 790.744C1278.99 792.21 1278.66 793.932 1278.66 795.909C1278.66 797.932 1278.98 799.693 1279.62 801.193C1280.27 802.693 1281.18 803.858 1282.35 804.688C1283.53 805.517 1284.91 805.932 1286.51 805.932C1287.55 805.932 1288.5 805.75 1289.35 805.386C1290.2 805.023 1290.93 804.5 1291.52 803.818C1292.11 803.136 1292.53 802.318 1292.78 801.364H1296.8C1296.57 802.909 1296.01 804.301 1295.11 805.54C1294.23 806.767 1293.05 807.744 1291.59 808.472C1290.13 809.188 1288.44 809.545 1286.51 809.545ZM1313.66 809.545C1311.14 809.545 1308.96 808.989 1307.13 807.875C1305.31 806.75 1303.91 805.182 1302.92 803.17C1301.94 801.148 1301.45 798.795 1301.45 796.114C1301.45 793.432 1301.94 791.068 1302.92 789.023C1303.91 786.966 1305.28 785.364 1307.05 784.216C1308.82 783.057 1310.89 782.477 1313.25 782.477C1314.61 782.477 1315.96 782.705 1317.29 783.159C1318.62 783.614 1319.83 784.352 1320.92 785.375C1322.01 786.386 1322.88 787.727 1323.53 789.398C1324.18 791.068 1324.5 793.125 1324.5 795.568V797.273H1304.32V793.795H1320.41C1320.41 792.318 1320.11 791 1319.52 789.841C1318.94 788.682 1318.11 787.767 1317.03 787.097C1315.97 786.426 1314.7 786.091 1313.25 786.091C1311.65 786.091 1310.26 786.489 1309.09 787.284C1307.93 788.068 1307.04 789.091 1306.41 790.352C1305.79 791.614 1305.48 792.966 1305.48 794.409V796.727C1305.48 798.705 1305.82 800.381 1306.5 801.756C1307.19 803.119 1308.15 804.159 1309.38 804.875C1310.61 805.58 1312.03 805.932 1313.66 805.932C1314.72 805.932 1315.67 805.784 1316.52 805.489C1317.39 805.182 1318.13 804.727 1318.76 804.125C1319.38 803.511 1319.86 802.75 1320.2 801.841L1324.09 802.932C1323.68 804.25 1322.99 805.409 1322.03 806.409C1321.06 807.398 1319.87 808.17 1318.45 808.727C1317.03 809.273 1315.43 809.545 1313.66 809.545ZM1349.16 788.682L1345.55 789.705C1345.32 789.102 1344.99 788.517 1344.55 787.949C1344.11 787.369 1343.52 786.892 1342.77 786.517C1342.02 786.142 1341.06 785.955 1339.89 785.955C1338.29 785.955 1336.95 786.324 1335.89 787.062C1334.83 787.79 1334.3 788.716 1334.3 789.841C1334.3 790.841 1334.66 791.631 1335.39 792.21C1336.12 792.79 1337.26 793.273 1338.8 793.659L1342.69 794.614C1345.03 795.182 1346.77 796.051 1347.92 797.222C1349.07 798.381 1349.64 799.875 1349.64 801.705C1349.64 803.205 1349.21 804.545 1348.35 805.727C1347.49 806.909 1346.3 807.841 1344.77 808.523C1343.23 809.205 1341.45 809.545 1339.41 809.545C1336.74 809.545 1334.53 808.966 1332.78 807.807C1331.03 806.648 1329.93 804.955 1329.46 802.727L1333.28 801.773C1333.64 803.182 1334.33 804.239 1335.34 804.943C1336.36 805.648 1337.7 806 1339.35 806C1341.22 806 1342.71 805.602 1343.81 804.807C1344.93 804 1345.48 803.034 1345.48 801.909C1345.48 801 1345.16 800.239 1344.53 799.625C1343.89 799 1342.91 798.534 1341.6 798.227L1337.23 797.205C1334.84 796.636 1333.07 795.756 1331.95 794.562C1330.84 793.358 1330.28 791.852 1330.28 790.045C1330.28 788.568 1330.69 787.261 1331.52 786.125C1332.36 784.989 1333.51 784.097 1334.95 783.449C1336.4 782.801 1338.05 782.477 1339.89 782.477C1342.48 782.477 1344.52 783.045 1345.99 784.182C1347.48 785.318 1348.54 786.818 1349.16 788.682Z" fill="white"/>
<path d="M1624.32 782.818C1624.11 781.091 1623.28 779.75 1621.83 778.795C1620.38 777.841 1618.59 777.364 1616.48 777.364C1614.93 777.364 1613.58 777.614 1612.42 778.114C1611.27 778.614 1610.38 779.301 1609.73 780.176C1609.09 781.051 1608.77 782.045 1608.77 783.159C1608.77 784.091 1608.99 784.892 1609.44 785.562C1609.89 786.222 1610.47 786.773 1611.18 787.216C1611.88 787.648 1612.62 788.006 1613.39 788.29C1614.16 788.562 1614.88 788.784 1615.52 788.955L1619.07 789.909C1619.98 790.148 1620.99 790.477 1622.1 790.898C1623.23 791.318 1624.3 791.892 1625.32 792.619C1626.36 793.335 1627.21 794.256 1627.88 795.381C1628.55 796.506 1628.89 797.886 1628.89 799.523C1628.89 801.409 1628.39 803.114 1627.4 804.636C1626.43 806.159 1624.99 807.369 1623.11 808.267C1621.23 809.165 1618.95 809.614 1616.27 809.614C1613.77 809.614 1611.61 809.21 1609.78 808.403C1607.96 807.597 1606.53 806.472 1605.48 805.028C1604.45 803.585 1603.86 801.909 1603.73 800H1608.09C1608.2 801.318 1608.65 802.409 1609.42 803.273C1610.2 804.125 1611.19 804.761 1612.39 805.182C1613.59 805.591 1614.89 805.795 1616.27 805.795C1617.89 805.795 1619.34 805.534 1620.62 805.011C1621.9 804.477 1622.92 803.739 1623.67 802.795C1624.42 801.841 1624.8 800.727 1624.8 799.455C1624.8 798.295 1624.47 797.352 1623.82 796.625C1623.18 795.898 1622.32 795.307 1621.27 794.852C1620.21 794.398 1619.07 794 1617.84 793.659L1613.55 792.432C1610.82 791.648 1608.66 790.528 1607.07 789.074C1605.48 787.619 1604.68 785.716 1604.68 783.364C1604.68 781.409 1605.21 779.705 1606.27 778.25C1607.34 776.784 1608.77 775.648 1610.56 774.841C1612.37 774.023 1614.39 773.614 1616.61 773.614C1618.86 773.614 1620.86 774.017 1622.61 774.824C1624.36 775.619 1625.75 776.71 1626.77 778.097C1627.81 779.483 1628.35 781.057 1628.41 782.818H1624.32ZM1635.84 809V774.091H1656.9V777.841H1640.06V789.636H1655.81V793.386H1640.06V805.25H1657.18V809H1635.84ZM1693.98 791.545C1693.98 795.227 1693.31 798.409 1691.98 801.091C1690.65 803.773 1688.83 805.841 1686.51 807.295C1684.19 808.75 1681.55 809.477 1678.57 809.477C1675.59 809.477 1672.94 808.75 1670.63 807.295C1668.31 805.841 1666.48 803.773 1665.15 801.091C1663.83 798.409 1663.16 795.227 1663.16 791.545C1663.16 787.864 1663.83 784.682 1665.15 782C1666.48 779.318 1668.31 777.25 1670.63 775.795C1672.94 774.341 1675.59 773.614 1678.57 773.614C1681.55 773.614 1684.19 774.341 1686.51 775.795C1688.83 777.25 1690.65 779.318 1691.98 782C1693.31 784.682 1693.98 787.864 1693.98 791.545ZM1689.89 791.545C1689.89 788.523 1689.38 785.972 1688.37 783.892C1687.37 781.812 1686.01 780.239 1684.3 779.17C1682.59 778.102 1680.68 777.568 1678.57 777.568C1676.46 777.568 1674.54 778.102 1672.83 779.17C1671.12 780.239 1669.76 781.812 1668.75 783.892C1667.75 785.972 1667.25 788.523 1667.25 791.545C1667.25 794.568 1667.75 797.119 1668.75 799.199C1669.76 801.278 1671.12 802.852 1672.83 803.92C1674.54 804.989 1676.46 805.523 1678.57 805.523C1680.68 805.523 1682.59 804.989 1684.3 803.92C1686.01 802.852 1687.37 801.278 1688.37 799.199C1689.38 797.119 1689.89 794.568 1689.89 791.545Z" fill="white"/>
</svg>
