<svg width="800" height="400" viewBox="0 0 800 400" fill="none" xmlns="http://www.w3.org/2000/svg">
<g clip-path="url(#clip0_1_2)">
<path d="M61.5385 0H0V400H61.5385V0Z" fill="#DAC574"/>
<path d="M123.077 0H61.5385V400H123.077V0Z" fill="#D9B656"/>
<path d="M184.615 0H123.077V400H184.615V0Z" fill="#D5A337"/>
<path d="M246.154 0H184.615V400H246.154V0Z" fill="#D08F17"/>
<path d="M307.692 0H246.154V400H307.692V0Z" fill="#C87900"/>
<path d="M369.231 0H307.692V400H369.231V0Z" fill="#BE6100"/>
<path d="M430.769 0H369.231V400H430.769V0Z" fill="#B24800"/>
<path d="M492.308 0H430.769V400H492.308V0Z" fill="#A52F00"/>
<path d="M553.846 0H492.308V400H553.846V0Z" fill="#961600"/>
<path d="M615.385 0H553.846V400H615.385V0Z" fill="#860000"/>
<path d="M676.923 0H615.385V400H676.923V0Z" fill="#740000"/>
<path d="M738.462 0H676.923V400H738.462V0Z" fill="#620000"/>
<path d="M800 0H738.462V400H800V0Z" fill="#500000"/>
<path d="M150.5 247V177.182H200.818V192.455H169.455V204.455H198.227V219.727H169.455V231.727H200.682V247H150.5ZM229.31 217.545V247H210.491V194.636H228.355V204.591H228.901C230.037 201.273 232.037 198.67 234.901 196.784C237.787 194.898 241.151 193.955 244.991 193.955C248.696 193.955 251.912 194.807 254.639 196.511C257.389 198.193 259.514 200.511 261.014 203.466C262.537 206.42 263.287 209.795 263.264 213.591V247H244.446V217.545C244.469 214.955 243.81 212.92 242.469 211.443C241.151 209.966 239.31 209.227 236.946 209.227C235.401 209.227 234.048 209.568 232.889 210.25C231.753 210.909 230.878 211.864 230.264 213.114C229.651 214.341 229.332 215.818 229.31 217.545ZM303.781 194.636V208.273H269.281V194.636H303.781ZM275.963 182.091H294.781V230.159C294.781 230.886 294.906 231.5 295.156 232C295.406 232.477 295.793 232.841 296.315 233.091C296.838 233.318 297.509 233.432 298.327 233.432C298.895 233.432 299.554 233.364 300.304 233.227C301.077 233.091 301.645 232.977 302.009 232.886L304.736 246.114C303.895 246.364 302.69 246.67 301.122 247.034C299.577 247.398 297.736 247.636 295.599 247.75C291.281 247.977 287.656 247.534 284.724 246.42C281.793 245.284 279.588 243.5 278.111 241.068C276.634 238.636 275.918 235.591 275.963 231.932V182.091ZM335.989 247.955C330.398 247.955 325.58 246.886 321.534 244.75C317.511 242.591 314.409 239.5 312.227 235.477C310.068 231.432 308.989 226.591 308.989 220.955C308.989 215.545 310.08 210.818 312.261 206.773C314.443 202.727 317.523 199.58 321.5 197.33C325.477 195.08 330.17 193.955 335.58 193.955C339.534 193.955 343.114 194.568 346.318 195.795C349.523 197.023 352.261 198.807 354.534 201.148C356.807 203.466 358.557 206.284 359.784 209.602C361.011 212.92 361.625 216.659 361.625 220.818V225.182H314.852V214.818H344.307C344.284 213.318 343.898 212 343.148 210.864C342.42 209.705 341.432 208.807 340.182 208.17C338.955 207.511 337.557 207.182 335.989 207.182C334.466 207.182 333.068 207.511 331.795 208.17C330.523 208.807 329.5 209.693 328.727 210.83C327.977 211.966 327.58 213.295 327.534 214.818V226C327.534 227.682 327.886 229.182 328.591 230.5C329.295 231.818 330.307 232.852 331.625 233.602C332.943 234.352 334.534 234.727 336.398 234.727C337.693 234.727 338.875 234.545 339.943 234.182C341.034 233.818 341.966 233.295 342.739 232.614C343.511 231.909 344.08 231.068 344.443 230.091H361.625C361.034 233.727 359.636 236.886 357.432 239.568C355.227 242.227 352.307 244.295 348.67 245.773C345.057 247.227 340.83 247.955 335.989 247.955ZM369.304 247V194.636H387.577V204.591H388.122C389.077 200.909 390.588 198.216 392.656 196.511C394.747 194.807 397.19 193.955 399.986 193.955C400.804 193.955 401.611 194.023 402.406 194.159C403.224 194.273 404.009 194.443 404.759 194.67V210.727C403.827 210.409 402.679 210.17 401.315 210.011C399.952 209.852 398.781 209.773 397.804 209.773C395.963 209.773 394.304 210.193 392.827 211.034C391.372 211.852 390.224 213.011 389.384 214.511C388.543 215.989 388.122 217.727 388.122 219.727V247H369.304ZM410.929 266.636V194.636H429.611V203.773H430.02C430.702 202 431.702 200.375 433.02 198.898C434.338 197.398 435.974 196.205 437.929 195.318C439.884 194.409 442.156 193.955 444.747 193.955C448.202 193.955 451.486 194.875 454.599 196.716C457.736 198.557 460.281 201.455 462.236 205.409C464.213 209.364 465.202 214.5 465.202 220.818C465.202 226.864 464.259 231.875 462.372 235.852C460.509 239.83 458.009 242.795 454.872 244.75C451.759 246.705 448.338 247.682 444.611 247.682C442.156 247.682 439.963 247.284 438.031 246.489C436.122 245.67 434.486 244.568 433.122 243.182C431.781 241.773 430.747 240.182 430.02 238.409H429.747V266.636H410.929ZM429.338 220.818C429.338 223.364 429.668 225.568 430.327 227.432C431.009 229.273 431.963 230.705 433.19 231.727C434.44 232.727 435.929 233.227 437.656 233.227C439.384 233.227 440.849 232.739 442.054 231.761C443.281 230.761 444.213 229.341 444.849 227.5C445.509 225.636 445.838 223.409 445.838 220.818C445.838 218.227 445.509 216.011 444.849 214.17C444.213 212.307 443.281 210.886 442.054 209.909C440.849 208.909 439.384 208.409 437.656 208.409C435.929 208.409 434.44 208.909 433.19 209.909C431.963 210.886 431.009 212.307 430.327 214.17C429.668 216.011 429.338 218.227 429.338 220.818ZM473.085 247V194.636H491.358V204.591H491.903C492.858 200.909 494.369 198.216 496.438 196.511C498.528 194.807 500.972 193.955 503.767 193.955C504.585 193.955 505.392 194.023 506.188 194.159C507.006 194.273 507.79 194.443 508.54 194.67V210.727C507.608 210.409 506.46 210.17 505.097 210.011C503.733 209.852 502.563 209.773 501.585 209.773C499.744 209.773 498.085 210.193 496.608 211.034C495.153 211.852 494.006 213.011 493.165 214.511C492.324 215.989 491.903 217.727 491.903 219.727V247H473.085ZM514.71 247V194.636H533.528V247H514.71ZM524.119 189.182C521.574 189.182 519.392 188.341 517.574 186.659C515.756 184.977 514.847 182.955 514.847 180.591C514.847 178.227 515.756 176.205 517.574 174.523C519.392 172.841 521.574 172 524.119 172C526.688 172 528.869 172.841 530.665 174.523C532.483 176.205 533.392 178.227 533.392 180.591C533.392 182.955 532.483 184.977 530.665 186.659C528.869 188.341 526.688 189.182 524.119 189.182ZM590.98 211.682H573.662C573.571 210.614 573.196 209.693 572.537 208.92C571.878 208.148 571.026 207.557 569.98 207.148C568.957 206.716 567.821 206.5 566.571 206.5C564.957 206.5 563.571 206.795 562.412 207.386C561.253 207.977 560.685 208.818 560.707 209.909C560.685 210.682 561.014 211.398 561.696 212.057C562.401 212.716 563.753 213.227 565.753 213.591L576.389 215.5C581.753 216.477 585.741 218.125 588.355 220.443C590.991 222.739 592.321 225.818 592.344 229.682C592.321 233.409 591.207 236.648 589.003 239.398C586.821 242.125 583.832 244.239 580.037 245.739C576.264 247.216 571.957 247.955 567.116 247.955C559.116 247.955 552.855 246.318 548.332 243.045C543.832 239.773 541.321 235.455 540.798 230.091H559.48C559.73 231.75 560.548 233.034 561.935 233.943C563.344 234.83 565.116 235.273 567.253 235.273C568.98 235.273 570.401 234.977 571.514 234.386C572.651 233.795 573.23 232.955 573.253 231.864C573.23 230.864 572.73 230.068 571.753 229.477C570.798 228.886 569.298 228.409 567.253 228.045L557.98 226.409C552.639 225.477 548.639 223.705 545.98 221.091C543.321 218.477 542.003 215.114 542.026 211C542.003 207.364 542.957 204.284 544.889 201.761C546.844 199.216 549.628 197.284 553.241 195.966C556.878 194.625 561.185 193.955 566.162 193.955C573.73 193.955 579.696 195.523 584.06 198.659C588.446 201.795 590.753 206.136 590.98 211.682ZM624.645 247.955C619.054 247.955 614.236 246.886 610.19 244.75C606.168 242.591 603.065 239.5 600.884 235.477C598.724 231.432 597.645 226.591 597.645 220.955C597.645 215.545 598.736 210.818 600.918 206.773C603.099 202.727 606.179 199.58 610.156 197.33C614.134 195.08 618.827 193.955 624.236 193.955C628.19 193.955 631.77 194.568 634.974 195.795C638.179 197.023 640.918 198.807 643.19 201.148C645.463 203.466 647.213 206.284 648.44 209.602C649.668 212.92 650.281 216.659 650.281 220.818V225.182H603.509V214.818H632.963C632.94 213.318 632.554 212 631.804 210.864C631.077 209.705 630.088 208.807 628.838 208.17C627.611 207.511 626.213 207.182 624.645 207.182C623.122 207.182 621.724 207.511 620.452 208.17C619.179 208.807 618.156 209.693 617.384 210.83C616.634 211.966 616.236 213.295 616.19 214.818V226C616.19 227.682 616.543 229.182 617.247 230.5C617.952 231.818 618.963 232.852 620.281 233.602C621.599 234.352 623.19 234.727 625.054 234.727C626.349 234.727 627.531 234.545 628.599 234.182C629.69 233.818 630.622 233.295 631.395 232.614C632.168 231.909 632.736 231.068 633.099 230.091H650.281C649.69 233.727 648.293 236.886 646.088 239.568C643.884 242.227 640.963 244.295 637.327 245.773C633.713 247.227 629.486 247.955 624.645 247.955Z" fill="white" fill-opacity="0.5"/>
</g>
<defs>
<clipPath id="clip0_1_2">
<rect width="800" height="400" fill="white"/>
</clipPath>
</defs>
</svg>
