<svg width="800" height="400" viewBox="0 0 800 400" fill="none" xmlns="http://www.w3.org/2000/svg">
<g clip-path="url(#clip0_1_17)">
<path d="M800 0H0V400H800V0Z" fill="url(#paint0_linear_1_17)"/>
<path d="M222.841 200.227C222.545 199.023 222.08 197.966 221.443 197.057C220.807 196.125 220.011 195.341 219.057 194.705C218.125 194.045 217.034 193.557 215.784 193.239C214.557 192.898 213.205 192.727 211.727 192.727C208.545 192.727 205.83 193.489 203.58 195.011C201.352 196.534 199.648 198.727 198.466 201.591C197.307 204.455 196.727 207.909 196.727 211.955C196.727 216.045 197.284 219.545 198.398 222.455C199.511 225.364 201.17 227.591 203.375 229.136C205.58 230.682 208.318 231.455 211.591 231.455C214.477 231.455 216.875 231.034 218.784 230.193C220.716 229.352 222.159 228.159 223.114 226.614C224.068 225.068 224.545 223.25 224.545 221.159L227.818 221.5H211.864V208H242.818V217.682C242.818 224.045 241.466 229.489 238.761 234.011C236.08 238.511 232.375 241.966 227.648 244.375C222.943 246.761 217.545 247.955 211.455 247.955C204.659 247.955 198.693 246.511 193.557 243.625C188.42 240.739 184.409 236.625 181.523 231.284C178.659 225.943 177.227 219.591 177.227 212.227C177.227 206.455 178.102 201.341 179.852 196.886C181.625 192.432 184.08 188.67 187.216 185.602C190.352 182.511 193.977 180.182 198.091 178.614C202.205 177.023 206.614 176.227 211.318 176.227C215.455 176.227 219.295 176.818 222.841 178C226.409 179.159 229.557 180.818 232.284 182.977C235.034 185.114 237.25 187.648 238.932 190.58C240.614 193.511 241.636 196.727 242 200.227H222.841ZM277.156 247.955C271.474 247.955 266.611 246.83 262.565 244.58C258.52 242.307 255.418 239.148 253.259 235.102C251.099 231.034 250.02 226.318 250.02 220.955C250.02 215.591 251.099 210.886 253.259 206.841C255.418 202.773 258.52 199.614 262.565 197.364C266.611 195.091 271.474 193.955 277.156 193.955C282.838 193.955 287.702 195.091 291.747 197.364C295.793 199.614 298.895 202.773 301.054 206.841C303.213 210.886 304.293 215.591 304.293 220.955C304.293 226.318 303.213 231.034 301.054 235.102C298.895 239.148 295.793 242.307 291.747 244.58C287.702 246.83 282.838 247.955 277.156 247.955ZM277.293 234.045C278.884 234.045 280.259 233.511 281.418 232.443C282.577 231.375 283.474 229.852 284.111 227.875C284.747 225.898 285.065 223.545 285.065 220.818C285.065 218.068 284.747 215.716 284.111 213.761C283.474 211.784 282.577 210.261 281.418 209.193C280.259 208.125 278.884 207.591 277.293 207.591C275.611 207.591 274.168 208.125 272.963 209.193C271.759 210.261 270.838 211.784 270.202 213.761C269.565 215.716 269.247 218.068 269.247 220.818C269.247 223.545 269.565 225.898 270.202 227.875C270.838 229.852 271.759 231.375 272.963 232.443C274.168 233.511 275.611 234.045 277.293 234.045ZM330.747 177.182V247H311.929V177.182H330.747ZM359.29 247.682C355.562 247.682 352.131 246.705 348.994 244.75C345.881 242.795 343.381 239.83 341.494 235.852C339.631 231.875 338.699 226.864 338.699 220.818C338.699 214.5 339.676 209.364 341.631 205.409C343.608 201.455 346.153 198.557 349.267 196.716C352.403 194.875 355.699 193.955 359.153 193.955C361.744 193.955 364.017 194.409 365.972 195.318C367.926 196.205 369.563 197.398 370.881 198.898C372.199 200.375 373.199 202 373.881 203.773H374.153V177.182H392.972V247H374.29V238.409H373.881C373.153 240.182 372.108 241.773 370.744 243.182C369.403 244.568 367.767 245.67 365.835 246.489C363.926 247.284 361.744 247.682 359.29 247.682ZM366.244 233.227C367.972 233.227 369.449 232.727 370.676 231.727C371.926 230.705 372.881 229.273 373.54 227.432C374.222 225.568 374.562 223.364 374.562 220.818C374.562 218.227 374.222 216.011 373.54 214.17C372.881 212.307 371.926 210.886 370.676 209.909C369.449 208.909 367.972 208.409 366.244 208.409C364.517 208.409 363.04 208.909 361.812 209.909C360.608 210.886 359.676 212.307 359.017 214.17C358.381 216.011 358.062 218.227 358.062 220.818C358.062 223.409 358.381 225.636 359.017 227.5C359.676 229.341 360.608 230.761 361.812 231.761C363.04 232.739 364.517 233.227 366.244 233.227ZM421.335 266.636V194.636H440.017V203.773H440.426C441.108 202 442.108 200.375 443.426 198.898C444.744 197.398 446.381 196.205 448.335 195.318C450.29 194.409 452.563 193.955 455.153 193.955C458.608 193.955 461.892 194.875 465.006 196.716C468.142 198.557 470.688 201.455 472.642 205.409C474.619 209.364 475.608 214.5 475.608 220.818C475.608 226.864 474.665 231.875 472.778 235.852C470.915 239.83 468.415 242.795 465.278 244.75C462.165 246.705 458.744 247.682 455.017 247.682C452.562 247.682 450.369 247.284 448.438 246.489C446.528 245.67 444.892 244.568 443.528 243.182C442.188 241.773 441.153 240.182 440.426 238.409H440.153V266.636H421.335ZM439.744 220.818C439.744 223.364 440.074 225.568 440.733 227.432C441.415 229.273 442.369 230.705 443.597 231.727C444.847 232.727 446.335 233.227 448.062 233.227C449.79 233.227 451.256 232.739 452.46 231.761C453.688 230.761 454.619 229.341 455.256 227.5C455.915 225.636 456.244 223.409 456.244 220.818C456.244 218.227 455.915 216.011 455.256 214.17C454.619 212.307 453.688 210.886 452.46 209.909C451.256 208.909 449.79 208.409 448.062 208.409C446.335 208.409 444.847 208.909 443.597 209.909C442.369 210.886 441.415 212.307 440.733 214.17C440.074 216.011 439.744 218.227 439.744 220.818ZM502.31 177.182V247H483.491V177.182H502.31ZM545.852 224.091V194.636H564.67V247H546.807V237.045H546.261C545.125 240.386 543.136 243 540.295 244.886C537.455 246.75 534.08 247.682 530.17 247.682C526.511 247.682 523.307 246.841 520.557 245.159C517.83 243.477 515.705 241.159 514.182 238.205C512.682 235.25 511.92 231.864 511.898 228.045V194.636H530.716V224.091C530.739 226.682 531.398 228.716 532.693 230.193C534.011 231.67 535.852 232.409 538.216 232.409C539.784 232.409 541.136 232.08 542.273 231.42C543.432 230.739 544.318 229.784 544.932 228.557C545.568 227.307 545.875 225.818 545.852 224.091ZM622.105 211.682H604.787C604.696 210.614 604.321 209.693 603.662 208.92C603.003 208.148 602.151 207.557 601.105 207.148C600.082 206.716 598.946 206.5 597.696 206.5C596.082 206.5 594.696 206.795 593.537 207.386C592.378 207.977 591.81 208.818 591.832 209.909C591.81 210.682 592.139 211.398 592.821 212.057C593.526 212.716 594.878 213.227 596.878 213.591L607.514 215.5C612.878 216.477 616.866 218.125 619.48 220.443C622.116 222.739 623.446 225.818 623.469 229.682C623.446 233.409 622.332 236.648 620.128 239.398C617.946 242.125 614.957 244.239 611.162 245.739C607.389 247.216 603.082 247.955 598.241 247.955C590.241 247.955 583.98 246.318 579.457 243.045C574.957 239.773 572.446 235.455 571.923 230.091H590.605C590.855 231.75 591.673 233.034 593.06 233.943C594.469 234.83 596.241 235.273 598.378 235.273C600.105 235.273 601.526 234.977 602.639 234.386C603.776 233.795 604.355 232.955 604.378 231.864C604.355 230.864 603.855 230.068 602.878 229.477C601.923 228.886 600.423 228.409 598.378 228.045L589.105 226.409C583.764 225.477 579.764 223.705 577.105 221.091C574.446 218.477 573.128 215.114 573.151 211C573.128 207.364 574.082 204.284 576.014 201.761C577.969 199.216 580.753 197.284 584.366 195.966C588.003 194.625 592.31 193.955 597.287 193.955C604.855 193.955 610.821 195.523 615.185 198.659C619.571 201.795 621.878 206.136 622.105 211.682Z" fill="white" fill-opacity="0.5"/>
</g>
<defs>
<linearGradient id="paint0_linear_1_17" x1="116.8" y1="58.4" x2="343.36" y2="511.52" gradientUnits="userSpaceOnUse">
<stop stop-color="#FFFFC4"/>
<stop offset="0.5" stop-color="#FF6164"/>
<stop offset="1" stop-color="#B00012"/>
</linearGradient>
<clipPath id="clip0_1_17">
<rect width="800" height="400" fill="white"/>
</clipPath>
</defs>
</svg>
