<svg width="800" height="400" viewBox="0 0 800 400" fill="none" xmlns="http://www.w3.org/2000/svg">
<g clip-path="url(#clip0_1_20)">
<path d="M800 0H0V400H800V0Z" fill="url(#paint0_linear_1_20)"/>
<path d="M192.5 247V177.182H241.591V192.455H211.455V204.455H238.591V219.727H211.455V247H192.5ZM247.71 247V194.636H265.983V204.591H266.528C267.483 200.909 268.994 198.216 271.062 196.511C273.153 194.807 275.597 193.955 278.392 193.955C279.21 193.955 280.017 194.023 280.812 194.159C281.631 194.273 282.415 194.443 283.165 194.67V210.727C282.233 210.409 281.085 210.17 279.722 210.011C278.358 209.852 277.188 209.773 276.21 209.773C274.369 209.773 272.71 210.193 271.233 211.034C269.778 211.852 268.631 213.011 267.79 214.511C266.949 215.989 266.528 217.727 266.528 219.727V247H247.71ZM311.426 247.955C305.835 247.955 301.017 246.886 296.972 244.75C292.949 242.591 289.847 239.5 287.665 235.477C285.506 231.432 284.426 226.591 284.426 220.955C284.426 215.545 285.517 210.818 287.699 206.773C289.881 202.727 292.96 199.58 296.938 197.33C300.915 195.08 305.608 193.955 311.017 193.955C314.972 193.955 318.551 194.568 321.756 195.795C324.96 197.023 327.699 198.807 329.972 201.148C332.244 203.466 333.994 206.284 335.222 209.602C336.449 212.92 337.062 216.659 337.062 220.818V225.182H290.29V214.818H319.744C319.722 213.318 319.335 212 318.585 210.864C317.858 209.705 316.869 208.807 315.619 208.17C314.392 207.511 312.994 207.182 311.426 207.182C309.903 207.182 308.506 207.511 307.233 208.17C305.96 208.807 304.938 209.693 304.165 210.83C303.415 211.966 303.017 213.295 302.972 214.818V226C302.972 227.682 303.324 229.182 304.028 230.5C304.733 231.818 305.744 232.852 307.062 233.602C308.381 234.352 309.972 234.727 311.835 234.727C313.131 234.727 314.313 234.545 315.381 234.182C316.472 233.818 317.403 233.295 318.176 232.614C318.949 231.909 319.517 231.068 319.881 230.091H337.062C336.472 233.727 335.074 236.886 332.869 239.568C330.665 242.227 327.744 244.295 324.108 245.773C320.494 247.227 316.267 247.955 311.426 247.955ZM369.832 247.955C364.241 247.955 359.423 246.886 355.378 244.75C351.355 242.591 348.253 239.5 346.071 235.477C343.912 231.432 342.832 226.591 342.832 220.955C342.832 215.545 343.923 210.818 346.105 206.773C348.287 202.727 351.366 199.58 355.344 197.33C359.321 195.08 364.014 193.955 369.423 193.955C373.378 193.955 376.957 194.568 380.162 195.795C383.366 197.023 386.105 198.807 388.378 201.148C390.651 203.466 392.401 206.284 393.628 209.602C394.855 212.92 395.469 216.659 395.469 220.818V225.182H348.696V214.818H378.151C378.128 213.318 377.741 212 376.991 210.864C376.264 209.705 375.276 208.807 374.026 208.17C372.798 207.511 371.401 207.182 369.832 207.182C368.31 207.182 366.912 207.511 365.639 208.17C364.366 208.807 363.344 209.693 362.571 210.83C361.821 211.966 361.423 213.295 361.378 214.818V226C361.378 227.682 361.73 229.182 362.435 230.5C363.139 231.818 364.151 232.852 365.469 233.602C366.787 234.352 368.378 234.727 370.241 234.727C371.537 234.727 372.719 234.545 373.787 234.182C374.878 233.818 375.81 233.295 376.582 232.614C377.355 231.909 377.923 231.068 378.287 230.091H395.469C394.878 233.727 393.48 236.886 391.276 239.568C389.071 242.227 386.151 244.295 382.514 245.773C378.901 247.227 374.673 247.955 369.832 247.955ZM453.5 194.636V208.273H419V194.636H453.5ZM425.682 182.091H444.5V230.159C444.5 230.886 444.625 231.5 444.875 232C445.125 232.477 445.511 232.841 446.034 233.091C446.557 233.318 447.227 233.432 448.045 233.432C448.614 233.432 449.273 233.364 450.023 233.227C450.795 233.091 451.364 232.977 451.727 232.886L454.455 246.114C453.614 246.364 452.409 246.67 450.841 247.034C449.295 247.398 447.455 247.636 445.318 247.75C441 247.977 437.375 247.534 434.443 246.42C431.511 245.284 429.307 243.5 427.83 241.068C426.352 238.636 425.636 235.591 425.682 231.932V182.091ZM461.179 247V194.636H479.452V204.591H479.997C480.952 200.909 482.463 198.216 484.531 196.511C486.622 194.807 489.065 193.955 491.861 193.955C492.679 193.955 493.486 194.023 494.281 194.159C495.099 194.273 495.884 194.443 496.634 194.67V210.727C495.702 210.409 494.554 210.17 493.19 210.011C491.827 209.852 490.656 209.773 489.679 209.773C487.838 209.773 486.179 210.193 484.702 211.034C483.247 211.852 482.099 213.011 481.259 214.511C480.418 215.989 479.997 217.727 479.997 219.727V247H461.179ZM502.804 247V194.636H521.622V247H502.804ZM512.213 189.182C509.668 189.182 507.486 188.341 505.668 186.659C503.849 184.977 502.94 182.955 502.94 180.591C502.94 178.227 503.849 176.205 505.668 174.523C507.486 172.841 509.668 172 512.213 172C514.781 172 516.963 172.841 518.759 174.523C520.577 176.205 521.486 178.227 521.486 180.591C521.486 182.955 520.577 184.977 518.759 186.659C516.963 188.341 514.781 189.182 512.213 189.182ZM545.801 247.818C542.46 247.818 539.506 247.273 536.938 246.182C534.392 245.068 532.392 243.386 530.938 241.136C529.483 238.886 528.756 236.023 528.756 232.545C528.756 229.682 529.244 227.239 530.222 225.216C531.199 223.17 532.562 221.5 534.312 220.205C536.062 218.909 538.097 217.92 540.415 217.239C542.756 216.557 545.278 216.114 547.983 215.909C550.915 215.682 553.267 215.409 555.04 215.091C556.835 214.75 558.131 214.284 558.926 213.693C559.722 213.08 560.119 212.273 560.119 211.273V211.136C560.119 209.773 559.597 208.727 558.551 208C557.506 207.273 556.165 206.909 554.528 206.909C552.733 206.909 551.267 207.307 550.131 208.102C549.017 208.875 548.347 210.068 548.119 211.682H530.801C531.028 208.5 532.04 205.568 533.835 202.886C535.653 200.182 538.301 198.023 541.778 196.409C545.256 194.773 549.597 193.955 554.801 193.955C558.551 193.955 561.915 194.398 564.892 195.284C567.869 196.148 570.403 197.364 572.494 198.932C574.585 200.477 576.176 202.295 577.267 204.386C578.381 206.455 578.938 208.705 578.938 211.136V247H561.347V239.636H560.938C559.892 241.591 558.619 243.17 557.119 244.375C555.642 245.58 553.949 246.455 552.04 247C550.153 247.545 548.074 247.818 545.801 247.818ZM551.938 235.955C553.369 235.955 554.71 235.659 555.96 235.068C557.233 234.477 558.267 233.625 559.062 232.511C559.858 231.398 560.256 230.045 560.256 228.455V224.091C559.756 224.295 559.222 224.489 558.653 224.67C558.108 224.852 557.517 225.023 556.881 225.182C556.267 225.341 555.608 225.489 554.903 225.625C554.222 225.761 553.506 225.886 552.756 226C551.301 226.227 550.108 226.602 549.176 227.125C548.267 227.625 547.585 228.25 547.131 229C546.699 229.727 546.483 230.545 546.483 231.455C546.483 232.909 546.994 234.023 548.017 234.795C549.04 235.568 550.347 235.955 551.938 235.955ZM606.747 177.182V247H587.929V177.182H606.747Z" fill="white" fill-opacity="0.5"/>
</g>
<defs>
<linearGradient id="paint0_linear_1_20" x1="116.8" y1="341.6" x2="343.36" y2="-111.52" gradientUnits="userSpaceOnUse">
<stop stop-color="#FC8EC5"/>
<stop offset="0.25" stop-color="#FF8DD3"/>
<stop offset="0.5" stop-color="#FFA1D8"/>
<stop offset="0.75" stop-color="#FFC1D2"/>
<stop offset="1" stop-color="#FFE0C3"/>
</linearGradient>
<clipPath id="clip0_1_20">
<rect width="800" height="400" fill="white"/>
</clipPath>
</defs>
</svg>
