<svg width="452" height="230" viewBox="0 0 452 230" fill="none" xmlns="http://www.w3.org/2000/svg">
<foreignObject x="2" y="124" width="447.773" height="109.455"><div xmlns="http://www.w3.org/1999/xhtml" style="backdrop-filter:blur(2px);clip-path:url(#bgblur_0_4_2_clip_path);height:100%;width:100%"></div></foreignObject><path data-figma-bg-blur-radius="4" d="M6 134.909H37.4545L59.0909 187.636H60.1818L81.8182 134.909H113.273V228H88.5455V174.182H87.8182L67.0909 227.273H52.1818L31.4545 173.818H30.7273V228H6V134.909ZM159.25 229.273C151.674 229.273 145.189 227.773 139.795 224.773C134.402 221.742 130.265 217.53 127.386 212.136C124.508 206.712 123.068 200.424 123.068 193.273C123.068 186.121 124.508 179.848 127.386 174.455C130.265 169.03 134.402 164.818 139.795 161.818C145.189 158.788 151.674 157.273 159.25 157.273C166.826 157.273 173.311 158.788 178.705 161.818C184.098 164.818 188.235 169.03 191.114 174.455C193.992 179.848 195.432 186.121 195.432 193.273C195.432 200.424 193.992 206.712 191.114 212.136C188.235 217.53 184.098 221.742 178.705 224.773C173.311 227.773 166.826 229.273 159.25 229.273ZM159.432 210.727C161.553 210.727 163.386 210.015 164.932 208.591C166.477 207.167 167.674 205.136 168.523 202.5C169.371 199.864 169.795 196.727 169.795 193.091C169.795 189.424 169.371 186.288 168.523 183.682C167.674 181.045 166.477 179.015 164.932 177.591C163.386 176.167 161.553 175.455 159.432 175.455C157.189 175.455 155.265 176.167 153.659 177.591C152.053 179.015 150.826 181.045 149.977 183.682C149.129 186.288 148.705 189.424 148.705 193.091C148.705 196.727 149.129 199.864 149.977 202.5C150.826 205.136 152.053 207.167 153.659 208.591C155.265 210.015 157.189 210.727 159.432 210.727ZM247.25 158.182V176.364H201.25V158.182H247.25ZM210.159 141.455H235.25V205.545C235.25 206.515 235.417 207.333 235.75 208C236.083 208.636 236.598 209.121 237.295 209.455C237.992 209.758 238.886 209.909 239.977 209.909C240.735 209.909 241.614 209.818 242.614 209.636C243.644 209.455 244.402 209.303 244.886 209.182L248.523 226.818C247.402 227.152 245.795 227.561 243.705 228.045C241.644 228.53 239.189 228.848 236.341 229C230.583 229.303 225.75 228.712 221.841 227.227C217.932 225.712 214.992 223.333 213.023 220.091C211.053 216.848 210.098 212.788 210.159 207.909V141.455ZM257.489 228V158.182H282.58V228H257.489ZM270.034 150.909C266.64 150.909 263.731 149.788 261.307 147.545C258.883 145.303 257.67 142.606 257.67 139.455C257.67 136.303 258.883 133.606 261.307 131.364C263.731 129.121 266.64 128 270.034 128C273.458 128 276.367 129.121 278.761 131.364C281.186 133.606 282.398 136.303 282.398 139.455C282.398 142.606 281.186 145.303 278.761 147.545C276.367 149.788 273.458 150.909 270.034 150.909ZM329 229.273C321.424 229.273 314.939 227.773 309.545 224.773C304.152 221.742 300.015 217.53 297.136 212.136C294.258 206.712 292.818 200.424 292.818 193.273C292.818 186.121 294.258 179.848 297.136 174.455C300.015 169.03 304.152 164.818 309.545 161.818C314.939 158.788 321.424 157.273 329 157.273C336.576 157.273 343.061 158.788 348.455 161.818C353.848 164.818 357.985 169.03 360.864 174.455C363.742 179.848 365.182 186.121 365.182 193.273C365.182 200.424 363.742 206.712 360.864 212.136C357.985 217.53 353.848 221.742 348.455 224.773C343.061 227.773 336.576 229.273 329 229.273ZM329.182 210.727C331.303 210.727 333.136 210.015 334.682 208.591C336.227 207.167 337.424 205.136 338.273 202.5C339.121 199.864 339.545 196.727 339.545 193.091C339.545 189.424 339.121 186.288 338.273 183.682C337.424 181.045 336.227 179.015 334.682 177.591C333.136 176.167 331.303 175.455 329.182 175.455C326.939 175.455 325.015 176.167 323.409 177.591C321.803 179.015 320.576 181.045 319.727 183.682C318.879 186.288 318.455 189.424 318.455 193.091C318.455 196.727 318.879 199.864 319.727 202.5C320.576 205.136 321.803 207.167 323.409 208.591C325.015 210.015 326.939 210.727 329.182 210.727ZM400.455 188.727V228H375.364V158.182H399.182V171.455H399.909C401.424 167.03 404.091 163.561 407.909 161.045C411.758 158.53 416.242 157.273 421.364 157.273C426.303 157.273 430.591 158.409 434.227 160.682C437.894 162.924 440.727 166.015 442.727 169.955C444.758 173.894 445.758 178.394 445.727 183.455V228H420.636V188.727C420.667 185.273 419.788 182.561 418 180.591C416.242 178.621 413.788 177.636 410.636 177.636C408.576 177.636 406.773 178.091 405.227 179C403.712 179.879 402.545 181.152 401.727 182.818C400.909 184.455 400.485 186.424 400.455 188.727Z" fill="white"/>
<path d="M17.3182 47.1818H21.9545L38.3182 110.864H38.7614L76.2273 47.1818H80.8636L69.2727 117H65.1818L75.1364 57.3068H74.7273L39.5114 117H35.4886L20.1818 57.3068H19.7727L9.81818 117H5.72727L17.3182 47.1818ZM107.548 118.091C103.185 118.091 99.4915 116.92 96.4688 114.58C93.4688 112.216 91.3324 108.966 90.0597 104.83C88.7869 100.693 88.5938 95.9659 89.4801 90.6477C90.3438 85.4659 92.0483 80.8636 94.5938 76.8409C97.1619 72.7955 100.298 69.625 104.003 67.3295C107.707 65.0114 111.685 63.8523 115.935 63.8523C120.321 63.8523 124.014 65.0455 127.014 67.4318C130.037 69.7955 132.185 73.0568 133.457 77.2159C134.73 81.3523 134.946 86.0682 134.105 91.3636C133.241 96.5227 131.514 101.125 128.923 105.17C126.355 109.193 123.219 112.352 119.514 114.648C115.81 116.943 111.821 118.091 107.548 118.091ZM107.616 114.239C111.344 114.239 114.776 113.193 117.912 111.102C121.048 109.011 123.673 106.182 125.787 102.614C127.923 99.0455 129.344 95.0568 130.048 90.6477C130.753 86.375 130.651 82.5114 129.741 79.0568C128.832 75.5795 127.207 72.8295 124.866 70.8068C122.526 68.7614 119.56 67.7386 115.969 67.7386C112.264 67.7386 108.832 68.7955 105.673 70.9091C102.537 73.0227 99.9006 75.8636 97.7642 79.4318C95.6278 83 94.2074 86.9773 93.5028 91.3636C92.7756 95.6136 92.8665 99.4773 93.7756 102.955C94.7074 106.409 96.3438 109.159 98.6847 111.205C101.048 113.227 104.026 114.239 107.616 114.239ZM171.375 64.6364L170.727 68.3523H147.886L148.5 64.6364H171.375ZM158.284 52.0909H162.409L153.75 104.625C153.386 106.761 153.5 108.511 154.091 109.875C154.705 111.216 155.625 112.216 156.852 112.875C158.102 113.511 159.523 113.83 161.114 113.83C161.818 113.83 162.455 113.773 163.023 113.659C163.591 113.523 164.159 113.375 164.727 113.216L165.102 117C164.398 117.25 163.648 117.455 162.852 117.614C162.057 117.773 161.136 117.852 160.091 117.852C157.909 117.852 155.932 117.364 154.159 116.386C152.409 115.409 151.08 113.989 150.17 112.125C149.284 110.261 149.068 108.011 149.523 105.375L158.284 52.0909ZM178.278 117L187.006 64.6364H191.131L182.403 117H178.278ZM191.028 55.3295C190.051 55.3295 189.233 55 188.574 54.3409C187.938 53.6591 187.665 52.8295 187.756 51.8523C187.801 51.0341 188.165 50.3182 188.847 49.7045C189.528 49.0909 190.313 48.7841 191.199 48.7841C192.176 48.7841 192.983 49.125 193.619 49.8068C194.256 50.4659 194.54 51.2727 194.472 52.2273C194.403 53.0682 194.028 53.7955 193.347 54.4091C192.688 55.0227 191.915 55.3295 191.028 55.3295ZM219.392 118.091C215.028 118.091 211.335 116.92 208.312 114.58C205.312 112.216 203.176 108.966 201.903 104.83C200.631 100.693 200.438 95.9659 201.324 90.6477C202.188 85.4659 203.892 80.8636 206.438 76.8409C209.006 72.7955 212.142 69.625 215.847 67.3295C219.551 65.0114 223.528 63.8523 227.778 63.8523C232.165 63.8523 235.858 65.0455 238.858 67.4318C241.881 69.7955 244.028 73.0568 245.301 77.2159C246.574 81.3523 246.79 86.0682 245.949 91.3636C245.085 96.5227 243.358 101.125 240.767 105.17C238.199 109.193 235.063 112.352 231.358 114.648C227.653 116.943 223.665 118.091 219.392 118.091ZM219.46 114.239C223.188 114.239 226.619 113.193 229.756 111.102C232.892 109.011 235.517 106.182 237.631 102.614C239.767 99.0455 241.188 95.0568 241.892 90.6477C242.597 86.375 242.494 82.5114 241.585 79.0568C240.676 75.5795 239.051 72.8295 236.71 70.8068C234.369 68.7614 231.403 67.7386 227.812 67.7386C224.108 67.7386 220.676 68.7955 217.517 70.9091C214.381 73.0227 211.744 75.8636 209.608 79.4318C207.472 83 206.051 86.9773 205.347 91.3636C204.619 95.6136 204.71 99.4773 205.619 102.955C206.551 106.409 208.188 109.159 210.528 111.205C212.892 113.227 215.869 114.239 219.46 114.239ZM265.764 83.0455L260.139 117H255.98L264.707 64.6364H268.764L267.401 72.9205H267.81C269.446 70.2159 271.764 68.0455 274.764 66.4091C277.764 64.7727 281.128 63.9545 284.855 63.9545C288.355 63.9545 291.321 64.7045 293.753 66.2045C296.185 67.7045 297.923 69.8409 298.969 72.6136C300.014 75.3636 300.219 78.6477 299.582 82.4659L293.821 117H289.662L295.389 82.6364C296.116 78.1818 295.412 74.6023 293.276 71.8977C291.162 69.1705 287.935 67.8068 283.594 67.8068C280.662 67.8068 277.935 68.4432 275.412 69.7159C272.912 70.9886 270.81 72.7727 269.105 75.0682C267.401 77.3409 266.287 80 265.764 83.0455Z" fill="white"/>
<circle cx="385" cy="67" r="67" fill="#B11FEB"/>
<path d="M363.182 101.023C358.068 101.023 353.636 99.8977 349.886 97.6477C346.136 95.3977 343.227 92.25 341.159 88.2045C339.114 84.1591 338.091 79.4318 338.091 74.0227C338.091 68.6136 339.114 63.875 341.159 59.8068C343.227 55.7386 346.136 52.5795 349.886 50.3295C353.636 48.0795 358.068 46.9545 363.182 46.9545C368.295 46.9545 372.727 48.0795 376.477 50.3295C380.227 52.5795 383.125 55.7386 385.17 59.8068C387.239 63.875 388.273 68.6136 388.273 74.0227C388.273 79.4318 387.239 84.1591 385.17 88.2045C383.125 92.25 380.227 95.3977 376.477 97.6477C372.727 99.8977 368.295 101.023 363.182 101.023ZM363.25 91.1364C366.023 91.1364 368.341 90.375 370.205 88.8523C372.068 87.3068 373.455 85.2386 374.364 82.6477C375.295 80.0568 375.761 77.1705 375.761 73.9886C375.761 70.7841 375.295 67.8864 374.364 65.2955C373.455 62.6818 372.068 60.6023 370.205 59.0568C368.341 57.5114 366.023 56.7386 363.25 56.7386C360.409 56.7386 358.045 57.5114 356.159 59.0568C354.295 60.6023 352.898 62.6818 351.966 65.2955C351.057 67.8864 350.602 70.7841 350.602 73.9886C350.602 77.1705 351.057 80.0568 351.966 82.6477C352.898 85.2386 354.295 87.3068 356.159 88.8523C358.045 90.375 360.409 91.1364 363.25 91.1364ZM425.27 47.6364V57.1818H394.315V47.6364H425.27ZM402.054 100V42.6932C402.054 39.1705 402.781 36.2386 404.236 33.8977C405.713 31.5568 407.69 29.8068 410.168 28.6477C412.645 27.4886 415.395 26.9091 418.418 26.9091C420.554 26.9091 422.452 27.0795 424.111 27.4205C425.77 27.7614 426.997 28.0682 427.793 28.3409L425.338 37.8864C424.815 37.7273 424.156 37.5682 423.361 37.4091C422.565 37.2273 421.679 37.1364 420.702 37.1364C418.406 37.1364 416.781 37.6932 415.827 38.8068C414.895 39.8977 414.429 41.4659 414.429 43.5114V100H402.054Z" fill="white"/>
<defs>
<clipPath id="bgblur_0_4_2_clip_path" transform="translate(-2 -124)"><path d="M6 134.909H37.4545L59.0909 187.636H60.1818L81.8182 134.909H113.273V228H88.5455V174.182H87.8182L67.0909 227.273H52.1818L31.4545 173.818H30.7273V228H6V134.909ZM159.25 229.273C151.674 229.273 145.189 227.773 139.795 224.773C134.402 221.742 130.265 217.53 127.386 212.136C124.508 206.712 123.068 200.424 123.068 193.273C123.068 186.121 124.508 179.848 127.386 174.455C130.265 169.03 134.402 164.818 139.795 161.818C145.189 158.788 151.674 157.273 159.25 157.273C166.826 157.273 173.311 158.788 178.705 161.818C184.098 164.818 188.235 169.03 191.114 174.455C193.992 179.848 195.432 186.121 195.432 193.273C195.432 200.424 193.992 206.712 191.114 212.136C188.235 217.53 184.098 221.742 178.705 224.773C173.311 227.773 166.826 229.273 159.25 229.273ZM159.432 210.727C161.553 210.727 163.386 210.015 164.932 208.591C166.477 207.167 167.674 205.136 168.523 202.5C169.371 199.864 169.795 196.727 169.795 193.091C169.795 189.424 169.371 186.288 168.523 183.682C167.674 181.045 166.477 179.015 164.932 177.591C163.386 176.167 161.553 175.455 159.432 175.455C157.189 175.455 155.265 176.167 153.659 177.591C152.053 179.015 150.826 181.045 149.977 183.682C149.129 186.288 148.705 189.424 148.705 193.091C148.705 196.727 149.129 199.864 149.977 202.5C150.826 205.136 152.053 207.167 153.659 208.591C155.265 210.015 157.189 210.727 159.432 210.727ZM247.25 158.182V176.364H201.25V158.182H247.25ZM210.159 141.455H235.25V205.545C235.25 206.515 235.417 207.333 235.75 208C236.083 208.636 236.598 209.121 237.295 209.455C237.992 209.758 238.886 209.909 239.977 209.909C240.735 209.909 241.614 209.818 242.614 209.636C243.644 209.455 244.402 209.303 244.886 209.182L248.523 226.818C247.402 227.152 245.795 227.561 243.705 228.045C241.644 228.53 239.189 228.848 236.341 229C230.583 229.303 225.75 228.712 221.841 227.227C217.932 225.712 214.992 223.333 213.023 220.091C211.053 216.848 210.098 212.788 210.159 207.909V141.455ZM257.489 228V158.182H282.58V228H257.489ZM270.034 150.909C266.64 150.909 263.731 149.788 261.307 147.545C258.883 145.303 257.67 142.606 257.67 139.455C257.67 136.303 258.883 133.606 261.307 131.364C263.731 129.121 266.64 128 270.034 128C273.458 128 276.367 129.121 278.761 131.364C281.186 133.606 282.398 136.303 282.398 139.455C282.398 142.606 281.186 145.303 278.761 147.545C276.367 149.788 273.458 150.909 270.034 150.909ZM329 229.273C321.424 229.273 314.939 227.773 309.545 224.773C304.152 221.742 300.015 217.53 297.136 212.136C294.258 206.712 292.818 200.424 292.818 193.273C292.818 186.121 294.258 179.848 297.136 174.455C300.015 169.03 304.152 164.818 309.545 161.818C314.939 158.788 321.424 157.273 329 157.273C336.576 157.273 343.061 158.788 348.455 161.818C353.848 164.818 357.985 169.03 360.864 174.455C363.742 179.848 365.182 186.121 365.182 193.273C365.182 200.424 363.742 206.712 360.864 212.136C357.985 217.53 353.848 221.742 348.455 224.773C343.061 227.773 336.576 229.273 329 229.273ZM329.182 210.727C331.303 210.727 333.136 210.015 334.682 208.591C336.227 207.167 337.424 205.136 338.273 202.5C339.121 199.864 339.545 196.727 339.545 193.091C339.545 189.424 339.121 186.288 338.273 183.682C337.424 181.045 336.227 179.015 334.682 177.591C333.136 176.167 331.303 175.455 329.182 175.455C326.939 175.455 325.015 176.167 323.409 177.591C321.803 179.015 320.576 181.045 319.727 183.682C318.879 186.288 318.455 189.424 318.455 193.091C318.455 196.727 318.879 199.864 319.727 202.5C320.576 205.136 321.803 207.167 323.409 208.591C325.015 210.015 326.939 210.727 329.182 210.727ZM400.455 188.727V228H375.364V158.182H399.182V171.455H399.909C401.424 167.03 404.091 163.561 407.909 161.045C411.758 158.53 416.242 157.273 421.364 157.273C426.303 157.273 430.591 158.409 434.227 160.682C437.894 162.924 440.727 166.015 442.727 169.955C444.758 173.894 445.758 178.394 445.727 183.455V228H420.636V188.727C420.667 185.273 419.788 182.561 418 180.591C416.242 178.621 413.788 177.636 410.636 177.636C408.576 177.636 406.773 178.091 405.227 179C403.712 179.879 402.545 181.152 401.727 182.818C400.909 184.455 400.485 186.424 400.455 188.727Z"/>
</clipPath></defs>
</svg>
