<svg width="1920" height="1080" viewBox="0 0 1920 1080" fill="none" xmlns="http://www.w3.org/2000/svg">
<rect width="1920" height="1080" fill="white"/>
<path d="M673.449 468.818V687H614.216V523.364H612.938L565.21 551.915V501.631L618.903 468.818H673.449ZM718.246 687V644.386L799.638 577.057C805.036 572.582 809.653 568.392 813.488 564.486C817.394 560.509 820.377 556.425 822.437 552.234C824.567 548.044 825.633 543.392 825.633 538.278C825.633 532.668 824.425 527.874 822.011 523.896C819.667 519.919 816.4 516.865 812.21 514.734C808.019 512.533 803.19 511.432 797.721 511.432C792.252 511.432 787.423 512.533 783.232 514.734C779.113 516.936 775.917 520.168 773.644 524.429C771.371 528.69 770.235 533.875 770.235 539.983H713.985C713.985 524.642 717.43 511.432 724.319 500.352C731.208 489.273 740.938 480.75 753.509 474.784C766.08 468.818 780.817 465.835 797.721 465.835C815.192 465.835 830.32 468.641 843.104 474.251C855.96 479.791 865.867 487.604 872.827 497.689C879.859 507.774 883.374 519.599 883.374 533.165C883.374 541.545 881.634 549.891 878.154 558.2C874.674 566.439 868.424 575.565 859.404 585.58C850.384 595.594 837.565 607.526 820.945 621.375L800.491 638.42V639.699H885.718V687H718.246ZM999.55 689.983C982.788 689.983 967.909 687.036 954.912 681.141C941.986 675.175 931.794 666.972 924.337 656.531C916.95 646.091 913.186 634.088 913.044 620.523H970.572C970.786 628.051 973.697 634.053 979.308 638.527C984.99 643.001 991.737 645.239 999.55 645.239C1005.59 645.239 1010.91 643.96 1015.53 641.403C1020.15 638.776 1023.77 635.082 1026.4 630.324C1029.02 625.565 1030.3 620.026 1030.23 613.705C1030.3 607.312 1029.02 601.773 1026.4 597.085C1023.77 592.327 1020.15 588.669 1015.53 586.112C1010.91 583.484 1005.59 582.17 999.55 582.17C993.3 582.17 987.511 583.697 982.185 586.751C976.929 589.734 973.058 593.889 970.572 599.216L918.584 588.989L927.107 468.818H1073.7V516.119H975.686L971.425 564.273H972.703C976.112 557.668 982.007 552.199 990.388 547.866C998.768 543.463 1008.5 541.261 1019.58 541.261C1032.58 541.261 1044.15 544.28 1054.31 550.317C1064.54 556.354 1072.6 564.699 1078.49 575.352C1084.46 585.935 1087.4 598.151 1087.33 612C1087.4 627.199 1083.78 640.693 1076.47 652.483C1069.22 664.202 1059.03 673.399 1045.89 680.075C1032.75 686.68 1017.31 689.983 999.55 689.983ZM1237.73 646.091V634.585C1237.73 625.352 1239.72 616.83 1243.7 609.017C1247.75 601.205 1253.61 594.919 1261.28 590.161C1268.95 585.402 1278.29 583.023 1289.3 583.023C1300.59 583.023 1310.07 585.366 1317.74 590.054C1325.48 594.741 1331.34 600.991 1335.32 608.804C1339.3 616.616 1341.28 625.21 1341.28 634.585V646.091C1341.28 655.324 1339.26 663.847 1335.21 671.659C1331.23 679.472 1325.38 685.757 1317.63 690.516C1309.89 695.274 1300.45 697.653 1289.3 697.653C1278.15 697.653 1268.73 695.274 1261.06 690.516C1253.39 685.757 1247.57 679.472 1243.59 671.659C1239.69 663.847 1237.73 655.324 1237.73 646.091ZM1274.81 634.585V646.091C1274.81 650.139 1275.8 654.152 1277.79 658.129C1279.85 662.036 1283.69 663.989 1289.3 663.989C1295.19 663.989 1299.06 662.071 1300.91 658.236C1302.83 654.401 1303.78 650.352 1303.78 646.091V634.585C1303.78 630.324 1302.9 626.205 1301.12 622.227C1299.35 618.25 1295.4 616.261 1289.3 616.261C1283.69 616.261 1279.85 618.25 1277.79 622.227C1275.8 626.205 1274.81 630.324 1274.81 634.585ZM1123.53 521.233V509.727C1123.53 500.352 1125.55 491.759 1129.6 483.946C1133.72 476.134 1139.62 469.884 1147.29 465.196C1154.96 460.509 1164.22 458.165 1175.09 458.165C1186.38 458.165 1195.87 460.509 1203.54 465.196C1211.28 469.884 1217.14 476.134 1221.11 483.946C1225.09 491.759 1227.08 500.352 1227.08 509.727V521.233C1227.08 530.608 1225.06 539.166 1221.01 546.908C1217.03 554.649 1211.17 560.828 1203.43 565.445C1195.69 570.061 1186.24 572.369 1175.09 572.369C1163.94 572.369 1154.53 570.026 1146.86 565.338C1139.19 560.651 1133.37 554.436 1129.39 546.695C1125.48 538.953 1123.53 530.466 1123.53 521.233ZM1161.03 509.727V521.233C1161.03 525.494 1162.02 529.543 1164.01 533.378C1166 537.213 1169.69 539.131 1175.09 539.131C1180.99 539.131 1184.86 537.213 1186.7 533.378C1188.62 529.543 1189.58 525.494 1189.58 521.233V509.727C1189.58 505.466 1188.69 501.347 1186.92 497.369C1185.14 493.392 1181.2 491.403 1175.09 491.403C1169.48 491.403 1165.72 493.463 1163.8 497.582C1161.95 501.631 1161.03 505.679 1161.03 509.727ZM1141.64 687L1291.64 468.818H1321.9L1171.9 687H1141.64Z" fill="black"/>
<path d="M642 486L904.5 723.5L1035.5 633L1229 832.5" stroke="black" stroke-opacity="0.44" stroke-width="46"/>
</svg>
